<svg width="25" height="26" viewBox="0 0 25 26" fill="none" xmlns="http://www.w3.org/2000/svg">
<path d="M12.9 14.3833C9.19037 14.3833 6.18332 11.3763 6.18332 7.66667C6.18332 3.95705 9.19037 0.95 12.9 0.95C16.6096 0.95 19.6167 3.95705 19.6167 7.66667C19.6167 11.3763 16.6096 14.3833 12.9 14.3833ZM7.61665 7.66667C7.61665 9.06789 8.17329 10.4117 9.1641 11.4025C10.1549 12.3934 11.4988 12.95 12.9 12.95C14.3012 12.95 15.645 12.3934 16.6359 11.4025C17.6267 10.4117 18.1833 9.06789 18.1833 7.66667C18.1833 6.26544 17.6267 4.9216 16.6359 3.93079C15.645 2.93997 14.3012 2.38333 12.9 2.38333C11.4988 2.38333 10.1549 2.93997 9.1641 3.93079C8.17329 4.9216 7.61665 6.26544 7.61665 7.66667Z" fill="#1A1B1F" stroke="#747575" stroke-width="0.1"/>
<path d="M8.23195 17.7328H8.26215H17.7048H17.735L17.7491 17.7061L18.0059 17.2179L18.1743 17.2684C18.1775 17.3027 18.18 17.3402 18.1815 17.3812L18.1815 17.3813C18.19 17.6077 18.173 17.8774 18.1353 18.1527L18.1353 18.1528C18.0981 18.4287 18.0393 18.7012 17.9597 18.9679C17.4921 19.0309 17.0603 19.2533 16.7373 19.5981C16.4069 19.9509 16.2117 20.4091 16.1863 20.8918C16.1609 21.3745 16.3069 21.8507 16.5985 22.2362C16.89 22.6217 17.3085 22.8918 17.7799 22.9988C18.2513 23.1057 18.7453 23.0426 19.1747 22.8207C19.6041 22.5988 19.9413 22.2322 20.1267 21.7858C20.3121 21.3394 20.3338 20.8418 20.1879 20.381C20.0458 19.9321 19.7537 19.5461 19.361 19.2875C19.4481 18.979 19.5132 18.6646 19.5557 18.3469M8.23195 17.7328L19.5596 17.7748C19.5498 17.9639 19.532 18.1525 19.5061 18.3401L19.5557 18.3468C19.5557 18.3468 19.5557 18.3468 19.5557 18.3469M8.23195 17.7328L8.21789 17.7061L7.93934 17.1764C7.67256 17.251 7.40814 17.3338 7.14645 17.4247L8.23195 17.7328ZM19.5557 18.3469C19.5809 18.164 19.5985 17.9802 19.6086 17.7959C20.4046 18.141 21.1461 18.5543 21.7693 19.0085C23.0467 19.9416 23.5168 20.8033 23.5168 21.3801V23.6168H2.28348V21.3801C2.28348 20.8026 2.75357 19.941 4.03083 19.0093C4.56746 18.6234 5.13774 18.2868 5.73475 18.0035C5.76198 18.322 5.81095 18.6383 5.88132 18.9501M19.5557 18.3469L5.88132 18.9501M5.88132 18.9501H5.56679C5.43373 18.9502 5.30332 18.9873 5.19016 19.0573C5.077 19.1273 4.98556 19.2274 4.92608 19.3464L4.25949 20.6796L5.88132 18.9501ZM18.1848 18.1595C18.2228 17.8821 18.2401 17.6095 18.2315 17.3795L18.1848 18.1595ZM18.1848 18.1595C18.1458 18.4487 18.0834 18.7343 17.9981 19.0135L18.1848 18.1595ZM8.18348 21.6168H7.56681H7.51681V21.6668V23.0001V23.0501H7.56681H8.90015C9.09022 23.0501 9.2725 22.9746 9.40691 22.8402C9.54131 22.7058 9.61681 22.5235 9.61681 22.3335V21.0001C9.61681 20.8891 9.59103 20.7794 9.54087 20.6798L8.18348 21.6168ZM8.18348 21.6168V21.1693L7.79058 20.3835H6.00971L5.61681 21.1693V21.6168H6.23348H6.28348V21.6668V23.0001V23.0501H6.23348H4.90015C4.71008 23.0501 4.52779 22.9746 4.39339 22.8402C4.25898 22.7058 4.18348 22.5235 4.18348 22.3335V21.0001C4.18348 20.8891 4.20926 20.7794 4.25942 20.6798L8.18348 21.6168ZM5.92609 16.3464L5.94818 16.3023L5.99263 16.3238L5.99469 16.3248C6.71946 16.0336 7.47347 15.797 8.22236 15.6267C8.41613 15.5824 8.60352 15.6947 8.75365 15.8392C8.89708 15.9772 9.01853 16.1557 9.09735 16.2995H16.8695L16.9054 16.2291L16.9056 16.2287L16.9128 16.2144C16.9824 16.0752 17.0639 15.9121 17.1668 15.793C17.2706 15.6727 17.4051 15.5875 17.5779 15.6267L17.5779 15.6267C19.385 16.038 21.2248 16.8376 22.614 17.8512C24.0007 18.863 24.9501 20.0972 24.9501 21.3801V25.0001V25.0501H24.9001H0.900146H0.850147V25.0001V21.3801C0.850147 20.369 1.43997 19.3887 2.36629 18.5247C3.28961 17.6636 4.55312 16.9124 5.92227 16.3541L5.92609 16.3464ZM8.8742 19.3464L9.5408 20.6796L7.19368 18.1533C7.19368 18.1534 7.19369 18.1534 7.19369 18.1534C7.23141 18.4286 7.28693 18.6922 7.34881 18.9034L7.34905 18.9043C7.35343 18.9204 7.3579 18.9352 7.36248 18.9501H8.23348C8.36656 18.9502 8.49697 18.9873 8.61013 19.0573C8.72329 19.1273 8.81473 19.2274 8.8742 19.3464ZM17.6168 21.0001C17.6168 21.355 17.9022 21.6268 18.2335 21.6268C18.5648 21.6268 18.8501 21.3556 18.8501 21.0001C18.8501 20.6453 18.5647 20.3735 18.2335 20.3735C17.9022 20.3735 17.6168 20.6446 17.6168 21.0001Z" fill="#1A1B1F" stroke="#747575" stroke-width="0.1"/>
</svg>
