<svg width="25" height="24" viewBox="0 0 25 24" fill="none" xmlns="http://www.w3.org/2000/svg">
<path d="M10.2288 7.28564H4.22876V8.99993H10.2288V7.28564Z" fill="#1A1B1F"/>
<path d="M10.2288 11.5713H4.22876V13.2856H10.2288V11.5713Z" fill="#1A1B1F"/>
<path d="M10.2288 15.8574H4.22876V17.5717H10.2288V15.8574Z" fill="#1A1B1F"/>
<path d="M2.51433 3H23.0858C23.5403 3.00045 23.9761 3.18121 24.2974 3.5026C24.6188 3.824 24.7996 4.25977 24.8 4.71429V20.1429C24.7996 20.5974 24.6188 21.0331 24.2974 21.3545C23.9761 21.6759 23.5403 21.8567 23.0858 21.8571H2.51433C2.05989 21.8565 1.62424 21.6756 1.3029 21.3543C0.981558 21.0329 0.800728 20.5973 0.800049 20.1429V4.71429C0.800503 4.25977 0.981258 3.824 1.30265 3.5026C1.62404 3.18121 2.05982 3.00045 2.51433 3ZM23.0858 4.71429H13.6572V20.1429H23.0858V4.71429ZM11.9429 20.1429V4.71429H2.51433L2.51262 20.1429H11.9429Z" fill="#1A1B1F"/>
</svg>
