<svg width="25" height="24" viewBox="0 0 25 24" fill="none" xmlns="http://www.w3.org/2000/svg">
<path d="M11.3548 22.6023L4.21718 15.0855H5.7245C5.90898 15.0855 6.08895 15.062 6.26443 15.0166L12.0612 21.1233L17.855 15.0166C18.0305 15.062 18.212 15.0855 18.3979 15.0855H19.8993L12.7676 22.6023C12.3777 23.0139 11.7448 23.0139 11.3548 22.6023ZM2.01395 3.05512C1.11567 4.00297 0.49925 5.20168 0.238995 6.50677C-0.0212612 7.81187 0.0857506 9.16766 0.547132 10.4107C0.647572 10.3969 0.748785 10.3901 0.850096 10.3904H2.18343C1.68009 9.38614 1.49571 8.24092 1.65693 7.12016C1.81814 5.9994 2.31661 4.96113 3.08032 4.15533C3.54015 3.66437 4.08902 3.2738 4.69494 3.00638C5.30086 2.73896 5.95173 2.60004 6.60961 2.59771C7.2675 2.59538 7.91925 2.72968 8.5269 2.9928C9.13455 3.25592 9.68594 3.64259 10.149 4.13029L11.5753 5.63741C11.645 5.71099 11.7281 5.7694 11.8196 5.80927C11.9111 5.84914 12.0093 5.86967 12.1085 5.86967C12.2076 5.86967 12.3058 5.84914 12.3974 5.80927C12.4889 5.7694 12.5719 5.71099 12.6417 5.63741L14.0815 4.11933C14.5407 3.62927 15.0888 3.23943 15.6938 2.97252C16.2988 2.7056 16.9487 2.56694 17.6055 2.56461C18.2624 2.56228 18.9131 2.69633 19.5199 2.95894C20.1266 3.22156 20.6772 3.6075 21.1396 4.09429C22.7489 5.79078 23.0279 8.37308 21.9675 10.3904H23.3473C23.4373 10.3904 23.5273 10.3967 23.6173 10.406C24.1005 9.1616 24.2244 7.79685 23.9736 6.47988C23.7229 5.16291 23.1084 3.95123 22.206 2.99408C21.6042 2.36018 20.8877 1.85744 20.098 1.51511C19.3084 1.17278 18.4614 0.997693 17.6063 1.00002C16.7512 1.00235 15.9051 1.18206 15.1171 1.52868C14.3292 1.87531 13.6152 2.38195 13.0166 3.01912L12.1092 3.97379L11.2153 3.03008C10.6128 2.39522 9.89537 1.89173 9.10468 1.54887C8.31399 1.20602 7.46585 1.03066 6.60962 1.03299C5.75338 1.03532 4.90613 1.21529 4.11716 1.56245C3.3282 1.9096 2.61326 2.41699 2.01395 3.05512ZM15.1553 6.17578C15.2119 6.03342 15.3076 5.91167 15.4302 5.82581C15.5529 5.73994 15.6971 5.69377 15.8448 5.69311C15.9925 5.69244 16.1371 5.73729 16.2604 5.82205C16.3838 5.9068 16.4804 6.02768 16.5382 6.16952L18.8929 11.9554H23.3473C23.5462 11.9554 23.737 12.0379 23.8776 12.1846C24.0182 12.3314 24.0973 12.5304 24.0973 12.7379C24.0973 12.9455 24.0182 13.1445 23.8776 13.2913C23.737 13.438 23.5462 13.5204 23.3473 13.5204H18.3979C18.2509 13.5204 18.1071 13.4754 17.9845 13.3908C17.8618 13.3062 17.7657 13.1858 17.708 13.0447L15.8558 8.49515L12.7916 16.1685C12.7388 16.3012 12.652 16.4162 12.5407 16.5009C12.4294 16.5855 12.2979 16.6366 12.1606 16.6484C12.0233 16.6602 11.8856 16.6323 11.7625 16.5678C11.6394 16.5033 11.5357 16.4047 11.4628 16.2827L8.24869 10.9162L6.28843 13.2528C6.21813 13.3368 6.13144 13.4041 6.03419 13.4502C5.93693 13.4964 5.83134 13.5203 5.7245 13.5204H0.850096C0.651207 13.5204 0.460464 13.438 0.31983 13.2913C0.179193 13.1445 0.100187 12.9455 0.100187 12.7379C0.100187 12.5304 0.179193 12.3314 0.31983 12.1846C0.460464 12.0379 0.651207 11.9554 0.850096 11.9554H5.38404L7.78375 9.09142C7.86088 8.99936 7.95761 8.92744 8.06619 8.88143C8.17477 8.83542 8.29218 8.81661 8.40898 8.8265C8.52579 8.83639 8.63875 8.87471 8.7388 8.93839C8.83885 9.00206 8.9232 9.08931 8.9851 9.19315L11.9652 14.1684L15.1553 6.17734V6.17578Z" fill="#1A1B1F"/>
</svg>
