<svg width="24" height="24" viewBox="0 0 24 24" fill="none" xmlns="http://www.w3.org/2000/svg">
<path fill-rule="evenodd" clip-rule="evenodd" d="M1 0C0.861929 0 0.730393 0.0279822 0.610755 0.078585C0.409667 0.163638 0.242189 0.312596 0.133782 0.5C0.0648215 0.619213 0.0197639 0.753983 0.00516289 0.897756C0.00174889 0.931373 0 0.965483 0 1L0 2L0 22L0 23C0 23.5523 0.447715 24 1 24H2H16H18H22H23C23.5523 24 24 23.5523 24 23V22V10C24 9.44772 23.5523 9 23 9H22H18V2V1C18 0.447715 17.5523 0 17 0L16 0L2 0L1 0ZM22 11H18V22H22V11ZM16 9V11V22L2 22V2L16 2V9ZM14 12C14 11.4477 13.5523 11 13 11H10V8C10 7.44772 9.55229 7 9 7C8.44772 7 8 7.44772 8 8V11H5C4.44772 11 4 11.4477 4 12C4 12.5523 4.44772 13 5 13H8V16C8 16.5523 8.44771 17 9 17C9.55228 17 10 16.5523 10 16V13H13C13.5523 13 14 12.5523 14 12Z" fill="#1A1B1F"/>
</svg>
