<svg width="24" height="25" viewBox="0 0 24 25" fill="none" xmlns="http://www.w3.org/2000/svg">
    <g clip-path="url(#qrg7p77qqa)">
        <path d="M22.4 7.305H16v5.6a3.2 3.2 0 0 0 2.4 3.088v5.712h-.8a.8.8 0 1 0 0 1.6h3.2a.8.8 0 0 0 0-1.6H20v-5.712a3.2 3.2 0 0 0 2.4-3.088v-5.6zm-1.6 5.6a1.6 1.6 0 0 1-3.2 0v-4h3.2v4zm-12-8v-.8a.8.8 0 1 0 0-1.6v-.8a.8.8 0 0 0-.8-.8H6.4a.8.8 0 0 0-.8.8v.8a.8.8 0 0 0 0 1.6v.8c0 2.288-4 4.912-4 7.2v9.6a1.6 1.6 0 0 0 1.6 1.6h8a1.76 1.76 0 0 0 1.6-1.6v-9.6c0-2.16-4-5.04-4-7.2zm-1.6 15.2a4 4 0 1 1 0-8 4 4 0 0 1 0 8z" fill="#fff"/>
    </g>
    <defs>
        <clipPath id="qrg7p77qqa">
            <path fill="#fff" transform="translate(0 .905)" d="M0 0h24v24H0z"/>
        </clipPath>
    </defs>
</svg>
