<svg width="24" height="25" viewBox="0 0 24 25" fill="none" xmlns="http://www.w3.org/2000/svg">
    <path d="m12.5 11.655-.75 2.5.75 1 .75-1-.75-2.5z" fill="#fff"/>
    <path fill-rule="evenodd" clip-rule="evenodd" d="M17 9.722a8.463 8.463 0 0 1-1.303-.807C14.926 8.328 14 7.379 14 6.129c0-1.113.842-2.224 2.094-2.224a1.97 1.97 0 0 1 1.406.579 1.969 1.969 0 0 1 1.407-.579C20.158 3.905 21 5.017 21 6.13c0 1.212-.93 2.162-1.695 2.752A9.02 9.02 0 0 1 18 9.714c.003.872.017 1.705.03 2.493.03 1.727.055 3.242-.049 4.492-.159 1.894-.629 3.414-2.033 4.237-1.38.808-3.42 1.112-5.11.907-.847-.103-1.657-.34-2.27-.75-.445-.297-.798-.697-.964-1.2-1.039-.047-2.072-.236-2.889-.575-.882-.366-1.715-1-1.715-1.993V7.466h.002A1.266 1.266 0 0 1 3 7.406c0-1.381 2.239-2.5 5-2.5s5 1.119 5 2.5c0 .02 0 .04-.002.06H13v2.975a3.5 3.5 0 0 1 0 6.929c-.024 1.007-.829 1.645-1.717 2.007-.736.299-1.64.464-2.566.513.1.134.236.258.407.372.435.291 1.075.496 1.835.588 1.526.186 3.334-.104 4.485-.777.955-.56 1.387-1.628 1.54-3.457.101-1.201.076-2.631.048-4.32-.017-.857-.027-1.716-.032-2.574zm-.906-4.817c-.591 0-1.094.548-1.094 1.224 0 .748.574 1.436 1.302 1.989.374.28.773.526 1.192.733a8.022 8.022 0 0 0 1.2-.761C19.43 7.52 20 6.833 20 6.13c0-.677-.503-1.225-1.094-1.225-.412 0-.74.23-.969.643l-.437.788-.437-.788c-.23-.414-.558-.643-.969-.643zM8 9.905c1.636 0 3.088-.392 4-1v1.535a3.5 3.5 0 0 0-.002 6.93c-.021.389-.336.772-1.092 1.08-.763.31-1.817.467-2.9.455a10.534 10.534 0 0 1-.46-.016V9.895c.15.007.301.01.454.01zm4-2.5c0 .108-.113.474-.912.874-.738.369-1.829.626-3.088.626-1.259 0-2.35-.257-3.088-.626-.799-.4-.912-.766-.912-.874 0-.107.113-.474.912-.873.739-.37 1.829-.627 3.088-.627 1.259 0 2.35.258 3.088.627.799.4.912.766.912.873zm.5 9a2.5 2.5 0 1 0 0-5 2.5 2.5 0 0 0 0 5z" fill="#fff"/>
</svg>
