<svg width="24" height="24" viewBox="0 0 24 24" fill="none" xmlns="http://www.w3.org/2000/svg">
<path d="M7.61578 23.3814L7.61544 23.3813L6.22202 22.9622C5.5677 22.7649 4.97523 22.4024 4.50173 21.9095C4.02825 21.4167 3.68969 20.8103 3.51868 20.1486L7.61578 23.3814ZM7.61578 23.3814C8.26305 23.5766 8.95924 23.5296 9.57442 23.2492C10.1896 22.9689 10.6817 22.4742 10.959 21.8577C10.959 21.8576 10.959 21.8576 10.959 21.8576L12.0363 19.4619L7.61578 23.3814ZM9.3619 14.1243L9.36197 14.125C9.38325 14.3145 9.47163 14.4901 9.61113 14.6201L11.3953 16.2837L11.3954 16.2837C11.8207 16.6802 12.1112 17.1999 12.2261 17.7699C12.3411 18.3399 12.2747 18.9315 12.0363 19.4619L9.3619 14.1243ZM9.3619 14.1243C9.32237 13.7676 9.42402 13.3277 9.597 12.8591C9.77609 12.3739 10.0556 11.7958 10.4349 11.1381L10.4351 11.1379M9.3619 14.1243L10.4351 11.1379M10.4351 11.1379C10.9815 10.1916 11.502 9.48 11.9775 9.05907C12.1392 8.91539 12.2862 8.80824 12.4215 8.73859C12.5312 8.68207 12.7356 8.59567 12.9606 8.65886L12.9607 8.65873M10.4351 11.1379L12.9607 8.65873M12.9607 8.65873L12.9718 8.66213M12.9607 8.65873L12.9718 8.66213M12.9718 8.66213L15.3723 9.39662C15.3724 9.39662 15.3724 9.39663 15.3724 9.39663C15.9281 9.56662 16.5232 9.55844 17.074 9.37324C17.6249 9.18804 18.104 8.83509 18.4442 8.36388L19.974 6.24296C20.3684 5.69613 20.551 5.02476 20.4879 4.35349C20.4248 3.68221 20.1202 3.05665 19.6308 2.59293L19.6307 2.59281M12.9718 8.66213L19.6307 2.59281M19.6307 2.59281L18.5727 1.58979C18.0738 1.11733 17.461 0.782131 16.7941 0.616837C16.1272 0.451544 15.4288 0.46179 14.767 0.64658C11.66 1.51413 8.79879 4.15897 6.18581 8.68443L6.18581 8.68444M19.6307 2.59281L6.18581 8.68444M6.18581 8.68444C3.56936 13.2157 2.71095 17.0202 3.51865 20.1485L6.18581 8.68444ZM4.28468 19.9512L4.28457 19.9507C3.51706 16.9776 4.41446 13.336 6.87119 9.08019C9.32439 4.83021 12.0255 2.2341 14.9804 1.40805L14.9809 1.40792C15.5108 1.26031 16.07 1.2524 16.6039 1.38495C17.1379 1.51751 17.6284 1.78599 18.0278 2.16431C18.0278 2.16432 18.0278 2.16433 18.0278 2.16435L19.0871 3.16753L19.0872 3.16757C19.4376 3.49952 19.6557 3.94739 19.7008 4.42798C19.746 4.90857 19.6152 5.38922 19.3327 5.78065L17.8041 7.90041L17.8041 7.90042C17.5606 8.23808 17.2174 8.491 16.8228 8.62368C16.4282 8.75635 16.002 8.76213 15.604 8.6402C15.604 8.64019 15.604 8.64019 15.6039 8.64018L13.2013 7.90447C13.2007 7.9043 13.2002 7.90413 13.1996 7.90396C12.6943 7.75424 12.1939 7.86184 11.6271 8.3104C11.0398 8.77516 10.4203 9.58033 9.74967 10.7422L9.74963 10.7422C8.83862 12.3199 8.48799 13.4271 8.57503 14.2118C8.6179 14.5901 8.79318 14.9388 9.07142 15.199C9.07149 15.199 9.07157 15.1991 9.07164 15.1992L10.8554 16.8623C10.8554 16.8624 10.8555 16.8624 10.8555 16.8624C11.16 17.1462 11.368 17.5181 11.4503 17.9261C11.5327 18.3341 11.4852 18.7577 11.3145 19.1374L11.3145 19.1375L10.2372 21.5333L10.2372 21.5334C10.0387 21.9744 9.68669 22.3281 9.2467 22.5288C8.80671 22.7294 8.30878 22.7632 7.84571 22.6239L7.84548 22.6238L6.45056 22.2035C6.45055 22.2035 6.45054 22.2034 6.45052 22.2034C5.92652 22.0456 5.45201 21.7554 5.07267 21.3609C4.69333 20.9665 4.42195 20.481 4.28468 19.9512Z" fill="#9A9A9A" stroke="#9A9A9A"/>
</svg>
