<svg width="24" height="24" viewBox="0 0 24 24" fill="none" xmlns="http://www.w3.org/2000/svg">
<path d="M5.03982 9.84082C5.23078 9.84082 5.41391 9.91668 5.54894 10.0517C5.68397 10.1867 5.75982 10.3699 5.75982 10.5608V12.0008C5.75982 13.5285 6.36668 14.9935 7.44689 16.0738C8.5271 17.154 9.99218 17.7608 11.5198 17.7608C13.0475 17.7608 14.5126 17.154 15.5928 16.0738C16.673 14.9935 17.2798 13.5285 17.2798 12.0008V10.5608C17.2798 10.3699 17.3557 10.1867 17.4907 10.0517C17.6257 9.91668 17.8089 9.84082 17.9998 9.84082C18.1908 9.84082 18.3739 9.91668 18.5089 10.0517C18.644 10.1867 18.7198 10.3699 18.7198 10.5608V12.0008C18.7198 13.7857 18.0569 15.507 16.8595 16.8308C15.6622 18.1545 14.0158 18.9863 12.2398 19.1648V22.0808H16.5598C16.7508 22.0808 16.9339 22.1567 17.0689 22.2917C17.204 22.4267 17.2798 22.6099 17.2798 22.8008C17.2798 22.9918 17.204 23.1749 17.0689 23.3099C16.9339 23.445 16.7508 23.5208 16.5598 23.5208H6.47982C6.28887 23.5208 6.10573 23.445 5.97071 23.3099C5.83568 23.1749 5.75982 22.9918 5.75982 22.8008C5.75982 22.6099 5.83568 22.4267 5.97071 22.2917C6.10573 22.1567 6.28887 22.0808 6.47982 22.0808H10.7998V19.1648C9.02385 18.9863 7.37748 18.1545 6.18013 16.8308C4.98278 15.507 4.3198 13.7857 4.31982 12.0008V10.5608C4.31982 10.3699 4.39568 10.1867 4.53071 10.0517C4.66573 9.91668 4.84887 9.84082 5.03982 9.84082Z" fill="white"/>
<path d="M14.3997 12.0005C14.3997 12.7643 14.0963 13.4968 13.5562 14.0369C13.0161 14.577 12.2835 14.8805 11.5197 14.8805C10.7559 14.8805 10.0233 14.577 9.48324 14.0369C8.94313 13.4968 8.63971 12.7643 8.63971 12.0005V4.80047C8.63971 4.03665 8.94313 3.30411 9.48324 2.764C10.0233 2.2239 10.7559 1.92047 11.5197 1.92047C12.2835 1.92047 13.0161 2.2239 13.5562 2.764C14.0963 3.30411 14.3997 4.03665 14.3997 4.80047V12.0005ZM11.5197 0.480469C10.374 0.480469 9.27516 0.93561 8.46501 1.74577C7.65485 2.55592 7.19971 3.65473 7.19971 4.80047V12.0005C7.19971 13.1462 7.65485 14.245 8.46501 15.0552C9.27516 15.8653 10.374 16.3205 11.5197 16.3205C12.6654 16.3205 13.7643 15.8653 14.5744 15.0552C15.3846 14.245 15.8397 13.1462 15.8397 12.0005V4.80047C15.8397 3.65473 15.3846 2.55592 14.5744 1.74577C13.7643 0.93561 12.6654 0.480469 11.5197 0.480469V0.480469Z" fill="white"/>
</svg>
