<svg width="24" height="24" viewBox="0 0 24 24" fill="none" xmlns="http://www.w3.org/2000/svg">
<path d="M0.823223 22.0262L0.646446 21.8494L0.823223 21.6726L6.80917 15.6866C5.38758 13.8914 4.68356 11.6283 4.83988 9.33815C5.0014 6.97196 6.06894 4.75912 7.82043 3.15998C9.57192 1.56083 11.8725 0.698505 14.2436 0.752381C16.6147 0.806256 18.8737 1.77219 20.5508 3.44923C22.2278 5.12628 23.1937 7.38532 23.2476 9.75641C23.3015 12.1275 22.4392 14.4281 20.84 16.1796C19.2409 17.9311 17.028 18.9986 14.6618 19.1601C12.3717 19.3164 10.1086 18.6124 8.31335 17.1908L2.3274 23.1768L2.15062 23.3536L1.97385 23.1768L0.823223 22.0262ZM21.0934 9.98004C21.0934 8.58106 20.6785 7.21351 19.9013 6.05031C19.124 4.88705 18.0193 3.98041 16.7268 3.44502C15.4342 2.90964 14.0119 2.76955 12.6398 3.04249C11.2676 3.31543 10.0072 3.98913 9.01798 4.97839C8.02871 5.96766 7.35501 7.22806 7.08208 8.60021C6.80914 9.97236 6.94922 11.3946 7.48461 12.6872C8.01999 13.9797 8.92664 15.0845 10.0899 15.8617C11.2531 16.6389 12.6206 17.0538 14.0195 17.0538C15.895 17.0518 17.6931 16.3058 19.0192 14.9796C20.3454 13.6535 21.0913 11.8555 21.0934 9.98004Z" fill="#9A9A9A" stroke="#9A9A9A" stroke-width="0.5"/>
</svg>
