<svg width="24" height="24" viewBox="0 0 24 24" fill="none" xmlns="http://www.w3.org/2000/svg">
<path d="M20.3618 2.82031C20.8487 2.82031 21.3157 3.01374 21.66 3.35804C22.0043 3.70235 22.1978 4.16932 22.1978 4.65624V9.55205C22.1978 10.039 22.0043 10.5059 21.66 10.8502C21.3157 11.1946 20.8487 11.388 20.3618 11.388H9.34625C8.85933 11.388 8.39236 11.1946 8.04805 10.8502C7.70375 10.5059 7.51032 10.039 7.51032 9.55205V4.65624C7.51032 4.16932 7.70375 3.70235 8.04805 3.35804C8.39236 3.01374 8.85933 2.82031 9.34625 2.82031H20.3618ZM20.9738 4.65624C20.9738 4.49393 20.9093 4.33828 20.7946 4.22351C20.6798 4.10874 20.5241 4.04426 20.3618 4.04426H9.34625C9.18394 4.04426 9.02829 4.10874 8.91352 4.22351C8.79875 4.33828 8.73427 4.49393 8.73427 4.65624V9.55205C8.73427 9.71436 8.79875 9.87002 8.91352 9.98478C9.02829 10.0996 9.18394 10.164 9.34625 10.164H20.3618C20.5241 10.164 20.6798 10.0996 20.7946 9.98478C20.9093 9.87002 20.9738 9.71436 20.9738 9.55205V4.65624ZM20.3618 12.6119C20.8487 12.6119 21.3157 12.8054 21.66 13.1497C22.0043 13.494 22.1978 13.9609 22.1978 14.4479V19.3437C22.1978 19.8306 22.0043 20.2976 21.66 20.6419C21.3157 20.9862 20.8487 21.1796 20.3618 21.1796H9.34625C8.85933 21.1796 8.39236 20.9862 8.04805 20.6419C7.70375 20.2976 7.51032 19.8306 7.51032 19.3437V14.4479C7.51032 13.9609 7.70375 13.494 8.04805 13.1497C8.39236 12.8054 8.85933 12.6119 9.34625 12.6119H20.3618ZM20.9738 14.4479C20.9738 14.2856 20.9093 14.1299 20.7946 14.0151C20.6798 13.9004 20.5241 13.8359 20.3618 13.8359H9.34625C9.18394 13.8359 9.02829 13.9004 8.91352 14.0151C8.79875 14.1299 8.73427 14.2856 8.73427 14.4479V19.3437C8.73427 19.506 8.79875 19.6616 8.91352 19.7764C9.02829 19.8912 9.18394 19.9556 9.34625 19.9556H20.3618C20.5241 19.9556 20.6798 19.8912 20.7946 19.7764C20.9093 19.6616 20.9738 19.506 20.9738 19.3437V14.4479ZM3.83846 14.3708C4.20019 14.4634 4.57831 14.4722 4.94396 14.3965C5.3096 14.3207 5.65312 14.1625 5.9483 13.9338C6.24347 13.7051 6.4825 13.412 6.64715 13.0768C6.8118 12.7417 6.89772 12.3734 6.89835 12C6.89848 11.4572 6.71821 10.9297 6.38587 10.5006C6.05353 10.0714 5.58798 9.76486 5.06242 9.62916C4.66098 9.52578 4.2399 9.52578 3.83846 9.62916C3.31245 9.7644 2.84636 10.0707 2.51355 10.4999C2.18074 10.9291 2.00012 11.4568 2.00012 12C2.00012 12.5431 2.18074 13.0708 2.51355 13.5C2.84636 13.9292 3.31245 14.2355 3.83846 14.3708ZM4.45044 2.82031C4.28813 2.82031 4.13247 2.88479 4.01771 2.99956C3.90294 3.11432 3.83846 3.26998 3.83846 3.43229V8.37828C4.24361 8.31026 4.65727 8.31026 5.06242 8.37828V3.43229C5.06242 3.26998 4.99794 3.11432 4.88317 2.99956C4.76841 2.88479 4.61275 2.82031 4.45044 2.82031ZM4.45044 15.6718C4.65851 15.6718 4.86291 15.6547 5.06242 15.6216V20.5676C5.06242 20.7299 4.99794 20.8856 4.88317 21.0004C4.76841 21.1151 4.61275 21.1796 4.45044 21.1796C4.28813 21.1796 4.13247 21.1151 4.01771 21.0004C3.90294 20.8856 3.83846 20.7299 3.83846 20.5676V15.6216C4.03797 15.6547 4.24237 15.6718 4.45044 15.6718Z" fill="#747575"/>
</svg>
