<svg width="48" height="49" viewBox="0 0 48 49" fill="none" xmlns="http://www.w3.org/2000/svg">
<path d="M8 23.0415C7.44772 23.0415 7 23.4892 7 24.0415C7 24.5938 7.44772 25.0415 8 25.0415V23.0415ZM39.5 24.0415L40.2071 24.7486C40.5976 24.3581 40.5976 23.7249 40.2071 23.3344L39.5 24.0415ZM27.2071 10.3344C26.8166 9.94387 26.1834 9.94387 25.7929 10.3344C25.4024 10.7249 25.4024 11.3581 25.7929 11.7486L27.2071 10.3344ZM25.7929 36.3344C25.4024 36.7249 25.4024 37.3581 25.7929 37.7486C26.1834 38.1391 26.8166 38.1391 27.2071 37.7486L25.7929 36.3344ZM8 25.0415H39.5V23.0415H8V25.0415ZM40.2071 23.3344L27.2071 10.3344L25.7929 11.7486L38.7929 24.7486L40.2071 23.3344ZM38.7929 23.3344L25.7929 36.3344L27.2071 37.7486L40.2071 24.7486L38.7929 23.3344Z" fill="#747575"/>
</svg>
