<svg width="24" height="25" viewBox="0 0 24 25" fill="none" xmlns="http://www.w3.org/2000/svg">
    <path d="m18.791 9.09.105.104a3 3 0 0 1 0 4.242L12.532 19.8a2.999 2.999 0 0 1-4.244 0l-.105-.105-.454 2.571a1.5 1.5 0 0 1-2.538.801l-3.351-3.35a1.5 1.5 0 0 1 .8-2.539l2.573-.453-.106-.106a3 3 0 0 1 0-4.244l6.363-6.363a3 3 0 0 1 4.243 0l.105.105.455-2.566a1.5 1.5 0 0 1 2.54-.798l3.341 3.352a1.5 1.5 0 0 1-.802 2.535l-2.56.45zM5.93 13.746h10.48v.052l1.425-1.425c.277-.276.435-.65.44-1.04H8.269l-2.102 2.102a1.501 1.501 0 0 0-.24.31h.002zm0 1.5c.064.11.144.214.238.31L9.35 18.74a1.5 1.5 0 0 0 2.12 0l3.494-3.492H5.93zm11.485-5.414-2.761-2.761a1.5 1.5 0 0 0-2.121 0L9.769 9.833h7.645zM2.9 18.655l3.351 3.35.57-3.224a.6.6 0 0 0-.696-.695l-3.225.569zM17.75 3.81l-.57 3.222a.6.6 0 0 0 .695.694l3.217-.564-3.343-3.352h.001z" fill="#fff"/>
</svg>
