<svg width="150" height="51" viewBox="0 0 150 51" fill="none" xmlns="http://www.w3.org/2000/svg">
<path d="M25.9741 2.64085C27.8218 1.7594 29.7603 1.13125 31.7493 0.665193C34.7581 -0.0440177 37.7769 -0.246649 40.8362 0.401772C45.834 1.45546 49.6504 5.41691 50.5086 10.4624C51.0538 13.6438 50.8317 16.7643 49.9533 19.8544C49.7918 20.4218 49.6403 20.9993 49.4788 21.5666C49.4081 21.7389 49.2466 21.7389 49.1456 21.6477C48.5398 21.0601 47.7018 20.6852 47.4595 19.7632C47.5706 18.9628 47.8129 18.1928 47.9441 17.3924C48.348 14.9305 48.4792 12.4584 47.7725 10.0268C46.5811 5.90322 43.7945 3.54256 39.6347 2.78269C36.7269 2.24572 33.8797 2.66111 31.0729 3.45138C30.1642 3.70467 29.2858 4.02888 28.3973 4.35309C28.2761 4.40375 28.1449 4.44427 28.0136 4.43414C27.3473 4.08967 26.691 3.70467 26.166 3.14743C26.0448 3.01572 25.8227 2.89414 25.9741 2.64085Z" fill="#F53F24"/>
<path d="M67.329 14.0693C68.48 12.5192 69.944 12.2963 71.5493 12.6813C72.9628 13.0258 73.9927 14.3834 74.1138 15.9639C74.2653 17.8889 74.1542 19.8139 74.1744 21.7288C74.1845 22.1949 74.3763 22.8129 74.0936 23.0966C73.7907 23.4107 73.1749 23.1776 72.6902 23.1878C72.0239 23.208 72.0238 23.1878 72.0238 22.5292C72.0238 20.7359 72.0238 18.9528 72.0238 17.1595C72.0238 15.5181 71.2868 14.6468 69.8834 14.6063C68.4295 14.5658 67.3896 15.5384 67.3492 17.0885C67.2987 18.8717 67.3189 20.665 67.3189 22.4583C67.3189 23.1878 67.3189 23.1878 66.5616 23.1878C66.2386 23.1878 65.9155 23.1574 65.6025 23.1979C65.2289 23.2384 65.1683 23.0763 65.1683 22.742C65.1784 19.5708 65.1784 16.3996 65.1683 13.2284C65.1683 12.8333 65.2895 12.732 65.653 12.7624C66.0669 12.7928 66.491 12.7826 66.915 12.7624C67.2179 12.7421 67.3492 12.8333 67.3189 13.1575C67.3088 13.4209 67.329 13.6742 67.329 14.0693Z" fill="#1A1A1A"/>
<path d="M135.278 14.0087C136.793 12.4181 138.711 12.0635 140.317 13.0462C141.649 13.8567 142.104 15.1536 142.124 16.6227C142.164 18.6996 142.134 20.7766 142.144 22.8536C142.144 23.1373 142.063 23.2386 141.771 23.2285C141.316 23.2082 140.862 23.1981 140.408 23.2285C140.074 23.2487 139.983 23.1474 139.994 22.8131C140.014 21.0907 140.004 19.3683 140.004 17.646C140.004 17.494 140.004 17.342 140.004 17.19C139.983 15.5487 139.257 14.6774 137.853 14.6369C136.399 14.5964 135.359 15.5589 135.309 17.1191C135.248 18.9428 135.258 20.7665 135.289 22.5902C135.299 23.1373 135.127 23.2893 134.622 23.2285C134.269 23.1879 133.915 23.1981 133.562 23.2285C133.189 23.2589 133.128 23.117 133.128 22.7725C133.138 19.6014 133.138 16.4302 133.128 13.259C133.128 12.8639 133.239 12.7625 133.613 12.7929C134.027 12.8233 134.451 12.8132 134.875 12.7929C135.178 12.7727 135.309 12.8639 135.278 13.1881C135.258 13.4211 135.278 13.6744 135.278 14.0087Z" fill="#1A1A1A"/>
<path d="M0.0473016 14.485C-0.0839529 11.486 0.430969 8.63904 1.99593 6.04535C4.06571 2.62088 7.21582 0.807326 11.103 0.209563C12.6175 -0.0234639 14.1521 -0.0741218 15.6767 0.118378C15.8685 0.158905 16.0503 0.280484 15.8584 0.452721C15.4041 0.868115 15.3031 1.51654 14.8185 1.9218C14.4449 2.24601 14.1016 2.5297 13.5766 2.45877C13.4555 2.44864 13.3444 2.47904 13.2333 2.51956C11.9915 2.65127 10.7597 2.77285 9.56831 3.16798C5.71144 4.47496 3.5306 7.21049 2.79355 11.1719C2.68249 11.79 2.6522 12.408 2.52095 13.026C2.14737 13.5427 1.68294 13.9683 1.1983 14.3735C0.986277 14.5559 0.74396 14.7079 0.562223 14.9308C0.471355 15.0422 0.350197 15.1739 0.188653 15.1131C-0.00318089 15.0422 0.0977842 14.8598 0.0775911 14.718C0.0674946 14.6471 0.0876877 14.5559 0.0473016 14.485Z" fill="#F23E25"/>
<path d="M98.5373 42.985C96.9421 42.9749 95.6194 42.4379 94.741 41.0296C94.5492 40.7155 94.4886 40.4926 94.9026 40.3001C95.3064 40.1076 95.6901 39.8442 96.0637 39.601C96.2656 39.4693 96.3565 39.4693 96.4675 39.7226C97.0733 41.0802 98.6383 41.0904 99.547 40.7763C99.9407 40.6446 100.173 40.3406 100.213 39.905C100.254 39.4592 100.052 39.1654 99.6883 38.9526C98.9109 38.5068 98.0426 38.2839 97.2046 38.0104C95.5588 37.4633 94.8824 36.6021 94.9329 35.0621C94.9732 33.6538 95.9223 32.5596 97.4469 32.1543C99.1734 31.6984 101.001 32.3671 101.95 33.7652C102.162 34.0793 102.192 34.2516 101.819 34.4441C101.425 34.6366 101.051 34.8696 100.688 35.1026C100.466 35.2444 100.385 35.2039 100.244 34.981C99.7186 34.1502 98.6686 33.8463 97.77 34.2212C97.3762 34.3833 97.1339 34.6568 97.1036 35.0925C97.0733 35.5079 97.2954 35.7916 97.6488 35.9841C98.4767 36.44 99.3955 36.673 100.284 36.9668C101.566 37.3923 102.303 38.2333 102.404 39.4389C102.525 40.8371 101.96 41.8806 100.748 42.5189C100.042 42.8634 99.3047 42.985 98.5373 42.985Z" fill="#1A1A1A"/>
<path d="M84.8974 42.9848C83.2617 42.9646 81.9189 42.4175 81.0607 40.918C80.9093 40.6546 80.8992 40.4925 81.2021 40.3405C81.616 40.1277 82.0098 39.8643 82.4035 39.611C82.6055 39.4793 82.7064 39.459 82.8478 39.7225C83.4233 40.8065 84.7762 41.2523 85.9272 40.766C86.321 40.6039 86.5431 40.3101 86.5734 39.8846C86.6138 39.4388 86.3916 39.145 86.0282 38.9423C85.1599 38.4459 84.1906 38.223 83.2516 37.9089C81.2929 37.2402 80.6064 34.9302 81.8987 33.3193C83.4839 31.3436 87.2195 31.7084 88.4008 33.9475C88.4917 34.1298 88.5119 34.2311 88.3099 34.3325C88.0979 34.4338 87.9061 34.5655 87.7042 34.6871C87.4316 34.8492 87.1691 35.0923 86.8763 35.1531C86.4926 35.2342 86.5027 34.7478 86.2806 34.5553C85.7051 34.0792 84.7459 33.9171 84.0493 34.2413C83.6858 34.4135 83.4637 34.6972 83.4435 35.1025C83.4233 35.4976 83.6252 35.7711 83.9584 35.9636C84.7661 36.4196 85.6748 36.6425 86.5431 36.9363C88.0272 37.4327 88.734 38.3243 88.7441 39.7022C88.7542 41.2017 88.0071 42.2452 86.5633 42.7417C86.0383 42.9241 85.4729 42.9848 84.8974 42.9848Z" fill="#1A1A1A"/>
<path d="M78.2233 35.2342C77.5368 34.2109 76.8199 33.8766 75.8103 34.1299C75.366 34.2413 75.0026 34.4541 74.9218 34.9708C74.841 35.5179 75.1338 35.8219 75.5781 36.0448C76.3959 36.45 77.2743 36.6932 78.1325 36.9667C79.2935 37.3416 80.0407 38.0812 80.182 39.3274C80.3436 40.6952 79.8791 41.7793 78.6373 42.4581C76.6079 43.5726 73.791 42.9647 72.64 41.1612C72.2765 40.5939 72.2765 40.5939 72.8621 40.2291C72.9732 40.1582 73.0944 40.0873 73.2054 40.0164C73.4982 39.8441 73.7809 39.5503 74.0737 39.53C74.3867 39.5199 74.3968 39.9961 74.6088 40.2291C75.2449 40.9282 76.7492 41.1714 77.557 40.6749C78.2334 40.2595 78.2233 39.3679 77.5065 38.9424C76.6786 38.4561 75.7295 38.2332 74.8309 37.9394C73.165 37.3821 72.4179 36.0954 72.8318 34.4035C73.1347 33.1877 73.9929 32.519 75.154 32.1846C76.9512 31.6679 78.8897 32.367 79.8085 33.8361C79.9801 34.1096 79.9599 34.2413 79.6671 34.3933C79.1724 34.6567 78.6979 34.9506 78.2233 35.2342Z" fill="#1A1A1A"/>
<path d="M50.7206 38.7196C50.4682 43.5524 47.6917 48.7195 41.4621 50.4216C39.8971 50.8471 38.3019 51.0295 36.6764 50.9383C36.5451 50.766 36.6461 50.6039 36.747 50.4824C37.1408 50.0163 37.4134 49.4692 37.7062 48.9424C37.8678 48.6587 38.0798 48.4763 38.4029 48.4256C39.7154 48.223 41.0179 47.99 42.2496 47.453C44.279 46.5716 45.8339 45.1734 46.8839 43.218C47.4796 42.1238 47.8734 40.9688 48.0652 39.7429C48.0955 39.5808 48.1359 39.4187 48.2066 39.2566C48.4792 38.831 48.8931 38.5778 49.3475 38.3751C49.6403 38.2434 49.9432 38.1421 50.236 38.0104C50.6802 37.8078 50.7509 37.8685 50.7509 38.365C50.7509 38.4866 50.7711 38.6081 50.7206 38.7196Z" fill="#1B19F4"/>
<path d="M77.4455 17.899C77.4455 17.1088 77.4051 16.3084 77.4556 15.5181C77.4859 15.0217 77.3042 14.9204 76.87 14.9609C76.557 14.9913 76.2339 14.9507 75.9108 14.971C75.6887 14.9811 75.618 14.9001 75.618 14.6772C75.6281 14.1402 75.6281 13.5931 75.618 13.0561C75.618 12.8332 75.6988 12.7623 75.9108 12.7725C76.2945 12.7826 76.6883 12.7623 77.0719 12.7826C77.3546 12.8029 77.4556 12.7218 77.4455 12.4179C77.4253 11.891 77.4556 11.3743 77.4354 10.8475C77.4253 10.5942 77.5162 10.4929 77.7484 10.4219C78.2532 10.2801 78.748 10.1382 79.2326 9.95588C79.5052 9.85456 79.586 9.91535 79.5759 10.199C79.5658 10.9386 79.586 11.6884 79.5658 12.428C79.5557 12.6914 79.6365 12.7826 79.899 12.7725C80.4846 12.7522 81.0803 12.7826 81.6659 12.7623C81.9284 12.7522 82.0293 12.8332 82.0192 13.0967C81.999 13.6032 81.999 14.1098 82.0192 14.6164C82.0293 14.89 81.9284 14.9609 81.676 14.9507C81.0904 14.9305 80.4947 14.9609 79.9091 14.9406C79.6466 14.9305 79.5658 15.0115 79.5658 15.275C79.5759 16.8656 79.5658 18.4461 79.5759 20.0368C79.586 20.7865 79.9091 21.1107 80.636 21.1715C80.8379 21.1918 81.0399 21.1918 81.2418 21.1918C82.0091 21.1918 82.0091 21.1817 82.0091 21.9821C82.0091 23.2688 82.0091 23.2688 80.6865 23.2688C80.5048 23.2688 80.3129 23.2688 80.1312 23.2586C78.4451 23.1573 77.5263 22.1847 77.4455 20.3914C77.4354 19.5809 77.4556 18.74 77.4455 17.899C77.4556 17.899 77.4556 17.899 77.4455 17.899Z" fill="#1A1A1A"/>
<path d="M145.395 17.889C145.395 17.0278 145.385 16.1666 145.405 15.3054C145.405 15.0521 145.355 14.9407 145.072 14.9609C144.688 14.9812 144.295 14.9508 143.911 14.9711C143.638 14.9913 143.568 14.89 143.578 14.6266C143.598 14.12 143.598 13.6134 143.578 13.1069C143.568 12.8333 143.669 12.7421 143.931 12.7827C143.961 12.7827 144.002 12.7827 144.032 12.7827C144.476 12.7523 145.092 12.9752 145.325 12.6915C145.547 12.4179 145.395 11.8202 145.405 11.3744C145.405 10.5537 145.405 10.5537 146.193 10.3106C146.526 10.2092 146.869 10.1181 147.202 9.98634C147.475 9.87489 147.556 9.94581 147.546 10.2295C147.536 10.959 147.556 11.6783 147.536 12.4078C147.526 12.732 147.627 12.8131 147.929 12.7928C148.505 12.7725 149.07 12.7928 149.646 12.7827C149.908 12.7725 150.009 12.8536 149.999 13.1271C149.979 13.6337 149.979 14.1403 149.999 14.6469C150.009 14.9204 149.898 14.9913 149.646 14.9812C149.06 14.9711 148.465 14.9913 147.879 14.9711C147.616 14.9609 147.536 15.042 147.536 15.3054C147.546 16.8758 147.536 18.4462 147.546 20.0166C147.556 20.8271 147.869 21.1412 148.666 21.202C148.838 21.2121 149 21.2223 149.171 21.2223C149.989 21.2223 149.989 21.2223 149.989 22.0632C149.989 23.2891 149.989 23.2891 148.757 23.2992C146.385 23.3094 145.415 22.3469 145.405 19.966C145.395 19.277 145.395 18.5779 145.395 17.889Z" fill="#1A1A1A"/>
<path d="M104.838 37.453C104.838 36.5209 104.807 35.761 104.848 35.0113C104.878 34.525 104.696 34.4034 104.262 34.4541C103.949 34.4845 103.626 34.4541 103.303 34.4642C103.091 34.4743 103.01 34.3933 103.01 34.1704C103.02 33.6435 103.03 33.1268 103.01 32.6C103 32.3366 103.111 32.2859 103.333 32.296C103.717 32.3062 104.111 32.2859 104.494 32.3062C104.757 32.3163 104.848 32.2352 104.838 31.9718C104.817 31.445 104.848 30.9283 104.827 30.4014C104.817 30.138 104.908 30.0164 105.171 29.9455C105.655 29.8138 106.13 29.6517 106.604 29.4896C106.877 29.3984 106.988 29.4288 106.978 29.7631C106.958 30.4926 106.978 31.212 106.968 31.9414C106.958 32.2251 107.049 32.3264 107.341 32.3163C107.927 32.296 108.523 32.3264 109.108 32.3062C109.371 32.296 109.462 32.3771 109.452 32.6506C109.431 33.137 109.431 33.6334 109.452 34.1197C109.472 34.4237 109.351 34.4845 109.078 34.4743C108.503 34.4541 107.937 34.4845 107.362 34.4642C107.089 34.4541 106.978 34.525 106.978 34.8188C106.988 36.3689 106.968 37.9191 106.988 39.4692C106.998 40.4013 107.352 40.7053 108.311 40.7255C109.452 40.7458 109.452 40.7458 109.452 41.8704C109.452 42.7417 109.452 42.7417 108.603 42.8126C108.078 42.8633 107.564 42.8228 107.049 42.7316C105.807 42.5087 105.09 41.6982 104.928 40.3811C104.787 39.3375 104.878 38.3142 104.838 37.453Z" fill="#1A1A1A"/>
<path d="M95.1548 15.5588C95.1548 13.1982 95.1648 10.8375 95.1447 8.47686C95.1447 8.06146 95.2658 7.96015 95.6495 7.99054C96.0634 8.02094 96.4874 8.02094 96.9115 7.99054C97.2648 7.96015 97.3254 8.10199 97.3254 8.41607C97.3153 10.8578 97.3153 13.3096 97.3153 15.7513C97.3153 18.0816 97.3052 20.4017 97.3254 22.732C97.3254 23.1373 97.2144 23.2588 96.8206 23.2284C96.4067 23.1981 95.9826 23.1981 95.5586 23.2284C95.2052 23.2588 95.1447 23.1069 95.1447 22.7928C95.1547 20.3815 95.1548 17.9702 95.1548 15.5588Z" fill="#1A1A1A"/>
<path d="M101.95 15.5891C101.95 17.9498 101.94 20.3104 101.96 22.6812C101.97 23.1473 101.829 23.2587 101.395 23.2283C100.961 23.1878 100.516 23.2081 100.082 23.2182C99.8703 23.2283 99.7693 23.1473 99.7895 22.9244C99.7996 22.8231 99.7895 22.7218 99.7895 22.6204C99.7895 17.9295 99.7996 13.2386 99.7794 8.54768C99.7794 8.13228 99.84 7.91952 100.315 7.99044C100.84 8.06136 101.556 7.76754 101.849 8.11202C102.112 8.40583 101.93 9.10491 101.93 9.62162C101.96 11.6074 101.95 13.6033 101.95 15.5891Z" fill="#1A1A1A"/>
<path d="M62.5232 15.9436C62.5232 18.2232 62.5131 20.5029 62.5332 22.7825C62.5332 23.1371 62.4424 23.2485 62.089 23.2283C61.6246 23.1979 61.15 23.1979 60.6755 23.2283C60.3019 23.2586 60.2413 23.1067 60.2413 22.7723C60.2514 18.203 60.2514 13.6235 60.2413 9.05417C60.2413 8.69956 60.3423 8.58812 60.6957 8.60838C61.1298 8.63877 61.5741 8.6489 62.0082 8.60838C62.4121 8.57798 62.5433 8.6793 62.5433 9.11496C62.5131 11.3946 62.5232 13.6742 62.5232 15.9436Z" fill="#1A1A1A"/>
<path d="M13.3532 50.9382C8.12326 50.9686 2.8226 48.3749 0.762918 42.2859C0.661953 41.9819 0.490313 41.6678 0.530699 41.3234C0.853786 41.1714 1.06581 41.3943 1.20716 41.5969C1.77257 42.4277 2.5399 42.9849 3.38801 43.4915C3.60003 43.6131 3.78177 43.8157 3.90293 44.0386C4.2765 44.7276 4.97316 45.0315 5.52846 45.4976C6.21503 45.9738 6.82082 46.5614 7.56796 46.9666C8.50693 47.4732 9.47619 47.8683 10.5161 48.1014C10.6676 48.1318 10.8089 48.1723 10.9402 48.2533C11.1118 48.3952 11.2229 48.5877 11.3339 48.7701C11.7075 49.3779 12.1922 49.8744 12.8181 50.229C13.0705 50.3708 13.4744 50.4823 13.3532 50.9382Z" fill="#281BE8"/>
<path d="M25.57 48.1825C25.3782 48.0913 25.2268 48.2129 25.0551 48.2838C24.0657 48.6992 23.0863 49.1653 22.0363 49.4388C21.7536 49.3578 21.6324 49.1045 21.4608 48.9019C21.2083 48.608 20.8752 48.4054 20.5622 48.1825C20.3602 48.0305 20.1482 47.8786 20.1583 47.5847C20.2391 47.3619 20.4612 47.3416 20.6429 47.2707C21.1579 47.068 21.7031 46.9566 22.2281 46.6932C21.7939 46.2069 21.0872 46.1359 20.7439 45.5787C20.7136 45.3558 20.8449 45.2241 21.0165 45.143C21.6122 44.8999 22.1372 44.5453 22.5916 44.0894C22.6521 44.0286 22.7329 43.9982 22.8137 43.988C23.47 44.1197 24.0152 44.5149 24.5402 44.8695C25.1561 45.2849 25.671 45.295 26.2566 44.8796C26.5191 44.6871 26.8018 44.4744 27.1552 44.4744C27.8721 44.7783 28.4577 45.2849 29.0735 45.7509C29.1644 45.8219 29.225 45.9232 29.225 46.0549C29.0029 46.4196 28.5889 46.5513 28.286 46.835C27.3975 47.2909 26.5292 47.838 25.57 48.1825Z" fill="#5F24A8"/>
<path d="M25.9738 2.64087C26.2464 3.2589 26.8219 3.55271 27.3267 3.90732C27.5387 4.05929 27.771 4.20113 27.9931 4.34298C28.0133 4.576 27.8214 4.6064 27.6801 4.66719C26.9733 4.961 26.2868 5.29534 25.6002 5.62969C24.641 5.99442 23.7727 6.55166 22.8842 7.0785C21.7131 7.77758 20.5822 8.53745 19.4918 9.35811C19.3202 9.48982 19.1586 9.64179 18.9264 9.67219C18.8759 9.67219 18.8154 9.66206 18.7851 9.62153C18.3105 9.0035 17.735 8.46653 17.3312 7.78771C17.4321 7.44324 17.7451 7.32166 17.9975 7.13929C19.4716 6.06534 21.0063 5.06232 22.5914 4.16061C23.4496 3.6439 24.3079 3.13732 25.267 2.83337C25.5396 2.89416 25.7214 2.66113 25.9738 2.64087Z" fill="#D13945"/>
<path d="M106.605 18.0309C106.605 19.6114 106.594 21.2021 106.615 22.7826C106.615 23.1473 106.504 23.2486 106.16 23.2284C105.746 23.198 105.322 23.198 104.898 23.2284C104.555 23.2486 104.434 23.1473 104.444 22.7826C104.464 21.5161 104.454 20.2497 104.454 18.9934C104.454 17.0684 104.464 15.1535 104.444 13.2285C104.444 12.8739 104.545 12.7625 104.898 12.7827C105.312 12.8131 105.736 12.8131 106.16 12.7827C106.514 12.7625 106.615 12.8638 106.615 13.2285C106.594 14.8192 106.605 16.42 106.605 18.0309Z" fill="#1C1C1C"/>
<path d="M90.5812 37.4734C90.5812 35.8827 90.5913 34.3022 90.5711 32.7115C90.5711 32.3975 90.6216 32.2556 90.975 32.286C91.4293 32.3164 91.8836 32.3164 92.338 32.286C92.6712 32.2657 92.7116 32.3975 92.7116 32.6913C92.7015 35.903 92.7015 39.1046 92.7116 42.3163C92.7116 42.6911 92.5904 42.7722 92.2572 42.7418C91.712 42.6911 90.975 42.9748 90.662 42.6304C90.3894 42.3365 90.5812 41.6071 90.5711 41.0701C90.5711 39.8644 90.5812 38.6689 90.5812 37.4734Z" fill="#1A1A1A"/>
<path d="M20.2092 47.5847C20.2799 47.8177 20.4414 47.9798 20.6534 48.1014C21.2189 48.4358 21.6732 48.9018 22.0367 49.4388C19.2298 50.4519 16.3422 51.0396 13.3436 50.9383C13.3032 50.6343 13.0609 50.4925 12.8287 50.3709C11.9402 49.9251 11.3949 49.1551 10.9204 48.3243C11.0315 48.1825 11.193 48.2027 11.3344 48.2331C11.9604 48.3446 12.5964 48.375 13.2325 48.4155C14.3835 48.4966 15.5345 48.3547 16.6754 48.1926C17.6346 48.0609 18.5837 47.8279 19.5226 47.5847C19.7549 47.5341 19.9871 47.4327 20.2092 47.5847Z" fill="#4320CE"/>
<path d="M0.0462646 14.4849C0.207809 15.0523 0.167423 15.0016 0.641958 14.6673C1.29823 14.1911 1.83335 13.5832 2.43914 13.0665C2.64107 13.2286 2.60068 13.4616 2.60068 13.6744C2.5502 16.1667 3.09541 18.5578 3.82236 20.9286C3.88294 21.1413 3.9738 21.344 3.9738 21.5669C3.55985 22.3774 2.91367 22.9549 2.10595 23.35C2.06557 23.3703 2.01508 23.3298 1.9747 23.2994C0.853985 20.4625 0.137133 17.5345 0.0462646 14.4849Z" fill="#DE3B37"/>
<path d="M47.5703 19.8341C47.8833 20.6041 48.6405 20.9688 49.1554 21.5463C49.2362 21.6375 49.3675 21.6477 49.4785 21.5767C49.1352 22.8027 48.6405 23.9678 48.1357 25.143C48.0751 25.295 48.0246 25.4571 47.964 25.6091C47.9943 25.8421 47.8732 26.0346 47.7722 26.217C47.3885 26.9363 47.0957 27.7165 46.6313 28.3953C46.5808 28.4561 46.5101 28.4966 46.4395 28.5168C45.6418 28.2129 44.8341 27.9292 44.4706 27.0275C44.4505 26.683 44.6726 26.4399 44.824 26.1663C44.9654 25.9232 45.0764 25.6598 45.1774 25.3963C45.662 24.4642 46.0659 23.4916 46.4698 22.5291C46.7525 21.7692 47.0453 21.0195 47.2573 20.2394C47.3078 20.0773 47.328 19.8645 47.5703 19.8341Z" fill="#DE3B38"/>
<path d="M5.49821 45.5683C4.953 45.2846 4.3775 44.9503 4.06451 44.4538C3.62026 43.7446 2.97409 43.3393 2.30772 42.9341C1.98463 42.7314 1.74231 42.4883 1.54038 42.1641C1.29807 41.7892 1.01536 41.4143 0.530731 41.3231C0.207643 40.3201 0.106678 39.2867 0.0460991 38.2533C-0.0144799 37.1793 -0.0447694 36.1054 0.147064 35.0416C0.197547 34.8592 0.237933 34.5248 0.480249 34.8187C1.04565 35.4873 1.79279 35.8723 2.51974 36.2979C2.651 36.7234 2.57023 37.1692 2.59042 37.6049C2.6409 39.5299 3.00437 41.3839 3.89287 43.1063C4.26644 43.8256 4.74097 44.4741 5.2559 45.1022C5.36696 45.2339 5.5184 45.3555 5.49821 45.5683Z" fill="#351DDC"/>
<path d="M38.3826 48.5372C38.1201 48.6081 37.9485 48.7702 37.8071 49.0235C37.4537 49.6719 37.0499 50.3102 36.6662 50.9485C34.2733 50.9485 31.9612 50.5027 29.6996 49.7529C29.5986 49.6111 29.6592 49.4895 29.7501 49.3882C30.1943 48.8614 30.6184 48.3244 31.0121 47.7671C31.0626 47.6962 31.1333 47.6557 31.2242 47.6456C31.9107 47.6962 32.5569 47.9495 33.2435 48.061C34.7781 48.3143 36.3229 48.5473 37.8879 48.3953C38.0595 48.375 38.2514 48.3548 38.3826 48.5372Z" fill="#321BBE"/>
<path d="M1.96436 23.2893C2.78217 22.9448 3.30719 22.2761 3.87259 21.6378C4.23607 21.8404 4.21588 22.2862 4.438 22.5699C4.74089 23.5527 5.19524 24.4645 5.65968 25.3764C5.95247 25.9843 6.23518 26.5922 6.58855 27.1697C6.68952 27.3419 6.79048 27.5243 6.79048 27.737C6.79048 27.9194 6.69962 28.0613 6.57846 28.1727C6.23518 28.507 5.93228 28.8819 5.61929 29.2365C5.45775 29.4189 5.27601 29.6114 4.98321 29.5202C4.56925 29.2365 4.46829 28.7401 4.18559 28.3652C3.88269 27.6661 3.43845 27.0278 3.12545 26.3288C3.0043 26.0755 2.87304 25.8222 2.88314 25.5284C2.57015 24.7887 2.20667 24.0694 1.96436 23.2893Z" fill="#C7374E"/>
<path d="M13.2523 2.39795C13.2927 2.37769 13.3432 2.32703 13.3836 2.32703C14.4538 2.41822 14.9687 1.74953 15.3322 0.878215C15.4029 0.705978 15.524 0.564136 15.6957 0.472952C15.9481 0.341241 15.8269 0.219662 15.6755 0.0980835C17.6039 0.260189 19.492 0.645189 21.3295 1.29361C20.9862 1.99269 20.4309 2.54993 20.1078 3.25914C20.0675 3.34019 19.9968 3.38072 19.9059 3.40098C19.6333 3.44151 19.3708 3.34019 19.1184 3.26927C17.3919 2.82348 15.6452 2.52966 13.8581 2.54993C13.636 2.57019 13.4139 2.61072 13.2523 2.39795Z" fill="#D53835"/>
<path d="M2.42903 36.2574C1.6415 36.075 1.01552 35.6394 0.530884 34.991C0.379436 34.7985 0.238085 34.7275 0.147217 35.0315C0.318857 33.2686 0.652042 31.5361 1.22754 29.8644C2.07565 30.1075 2.81269 30.5229 3.41848 31.1714C3.41848 31.5665 3.25694 31.9312 3.17617 32.3061C2.96414 33.3091 2.7824 34.3223 2.68144 35.3557C2.65115 35.6596 2.66125 35.994 2.42903 36.2574Z" fill="#471FB5"/>
<path d="M50.7206 38.7194C50.6903 37.9696 50.7004 38 49.9936 38.2736C49.3677 38.5167 48.7619 38.77 48.2974 39.2969C48.2066 39.2259 48.1763 39.1348 48.1763 39.0334C48.2772 37.6353 48.2167 36.2473 48.1763 34.8491C48.2268 34.6668 48.3681 34.5857 48.5196 34.5047C49.0143 34.2615 49.5393 34.0589 50.034 33.8157C50.1855 33.7448 50.3571 33.6941 50.5086 33.8157C50.8216 35.4469 50.9023 37.0781 50.7206 38.7194Z" fill="#2C1AD1"/>
<path d="M46.5503 28.3446C47.0248 27.4328 47.4893 26.5108 47.9638 25.5989C48.4181 26.3284 48.6807 27.1389 48.9836 27.9292C49.2663 28.6587 49.549 29.3983 49.7004 30.1683C49.0239 30.6141 48.3071 30.9484 47.4691 30.918C47.358 30.8674 47.2873 30.7661 47.257 30.6546C47.0248 29.8947 46.6412 29.1653 46.5503 28.3446Z" fill="#371894"/>
<path d="M3.33787 31.0903C2.64121 30.685 1.93445 30.2696 1.23779 29.8643C1.64165 28.3649 2.20706 26.9262 2.88352 25.5381C3.34796 26.4703 3.8225 27.4125 4.28694 28.3446C4.34752 28.5168 4.29703 28.6688 4.23646 28.8309C4.02443 29.4185 3.84269 30.0062 3.64076 30.5938C3.58018 30.7863 3.5398 30.9889 3.33787 31.0903Z" fill="#4E1F93"/>
<path d="M31.1227 47.7162C30.8602 48.3443 30.3654 48.8002 29.9616 49.3271C29.8606 49.4588 29.7092 49.55 29.7092 49.7425C28.2755 49.3777 26.9225 48.7901 25.5797 48.1822C26.4581 47.6351 27.3668 47.1691 28.326 46.7841C28.4269 46.703 28.5481 46.703 28.6591 46.7537C29.4366 47.0374 30.2241 47.2704 30.9813 47.5946C31.0318 47.6149 31.0823 47.6554 31.1227 47.7162Z" fill="#3D1A96"/>
<path d="M47.4792 30.8879C48.2667 30.8068 48.9432 30.3813 49.6903 30.1786C50.0437 31.1918 50.3163 32.2252 50.3971 33.2992C50.4072 33.4815 50.5788 33.6234 50.5081 33.8159C49.9831 33.8767 49.559 34.2211 49.0744 34.3934C48.8018 34.4846 48.5494 34.6163 48.297 34.7379C48.1253 34.6264 48.085 34.444 48.0648 34.2617C47.9234 33.2992 47.7013 32.3569 47.4691 31.4147C47.4186 31.2425 47.3378 31.0601 47.4792 30.8879Z" fill="#331AB0"/>
<path d="M20.0072 3.33998C20.2697 2.54971 20.7543 1.90129 21.3198 1.30353C22.6828 1.6784 23.9953 2.18498 25.2574 2.82327C24.3689 3.29945 23.4804 3.77563 22.5919 4.26195C22.39 4.33287 22.1982 4.26195 22.0063 4.19103C21.451 3.97827 20.8856 3.78577 20.3101 3.59327C20.199 3.55274 20.0072 3.55274 20.0072 3.33998Z" fill="#B5313B"/>
<path d="M93.0049 29.2565C93.015 30.0569 92.4092 30.7053 91.6519 30.7155C90.8947 30.7256 90.2788 30.0772 90.2788 29.2869C90.2788 28.5169 90.8745 27.8685 91.6015 27.8482C92.3587 27.8279 92.9948 28.4662 93.0049 29.2565Z" fill="#1A1A1A"/>
<path d="M105.504 8.34503C106.261 8.3349 106.887 8.98332 106.887 9.77358C106.887 10.5638 106.261 11.2224 105.514 11.2224C104.787 11.2224 104.181 10.5841 104.161 9.81411C104.151 9.01371 104.747 8.36529 105.504 8.34503Z" fill="#1A1A1A"/>
<path d="M47.5703 19.8345C47.2068 20.7565 46.9948 21.7393 46.5606 22.641C46.2981 22.6106 46.2274 22.3674 46.1265 22.1952C45.2279 20.6653 44.2687 19.176 43.1884 17.7778C42.0172 16.1669 40.7349 14.6573 39.3416 13.2389C37.7464 11.5874 36.1107 9.98662 34.2934 8.57833C34.1621 8.47702 34.0208 8.3757 33.8895 8.28452C32.2337 6.91675 30.4466 5.75162 28.609 4.65741C28.4576 4.56623 28.2657 4.4953 28.2657 4.26228C31.3452 3.07688 34.5155 2.26636 37.8473 2.43859C41.4316 2.63109 44.4908 3.87728 46.5808 6.97754C47.7015 8.63912 48.2265 10.5135 48.378 12.4891C48.5496 14.8498 48.2972 17.1699 47.6308 19.4394C47.5804 19.561 47.5804 19.7028 47.5703 19.8345Z" fill="white"/>
<path d="M28.2656 4.25189C28.9926 4.81926 29.8306 5.21439 30.5979 5.7311C31.7489 6.5011 32.8898 7.29136 33.9701 8.18294C34.0711 8.36531 34.0509 8.54768 33.9298 8.69965C33.536 9.21636 33.1523 9.73307 32.6576 10.1687C32.3951 10.2093 32.2234 10.0269 32.0417 9.88505C30.1133 8.38557 28.0536 7.0786 25.903 5.9236C25.7617 5.85268 25.5698 5.81215 25.5698 5.58926C26.1958 5.13334 26.9329 4.90031 27.6194 4.5761C27.7507 4.51531 27.9122 4.49505 28.0031 4.36334C28.0839 4.31268 28.1747 4.28229 28.2656 4.25189Z" fill="#A12E53"/>
<path d="M119.064 13.1677C119.064 12.8537 118.983 12.7523 118.67 12.7726C118.206 12.803 117.731 12.7827 117.256 12.7726C117.034 12.7726 116.954 12.8435 116.964 13.0664C116.974 13.421 116.964 13.7756 116.964 14.2315C116.853 14.1302 116.812 14.11 116.782 14.0694C115.5 12.3167 113.208 12.2356 111.673 12.8739C108.139 14.3531 107.443 19.5 110.391 22.1139C112.178 23.7046 115.358 23.7654 116.842 21.658C116.853 21.6479 116.903 21.658 116.923 21.658C116.923 22.2152 116.964 22.7725 116.913 23.3196C116.843 24.0795 116.489 24.6975 115.843 25.1331C114.419 26.0855 112.238 25.6803 111.269 24.2618C111.118 24.0389 111.037 24.0693 110.855 24.1808C110.431 24.4543 110.007 24.7177 109.563 24.971C109.331 25.1027 109.31 25.2142 109.452 25.4371C109.916 26.197 110.522 26.7745 111.33 27.1392C112.269 27.5749 113.258 27.6762 114.278 27.6458C117.115 27.5749 119.033 25.6195 119.044 22.7826C119.054 21.04 119.044 19.3075 119.044 17.5648C119.054 16.1059 119.044 14.6368 119.064 13.1677ZM113.844 21.1717C112.026 21.1717 110.674 19.7735 110.684 17.8891C110.694 16.035 112.037 14.6368 113.824 14.6267C115.631 14.6165 116.964 16.0147 116.964 17.9194C116.964 19.7938 115.651 21.1616 113.844 21.1717Z" fill="#1A1A1A"/>
<path d="M71.6305 42.5087C70.0252 37.8177 68.4198 33.1268 66.8246 28.4359C66.7337 28.1725 66.5923 28.1218 66.35 28.1218C65.724 28.1421 65.1082 28.1522 64.4822 28.1218C64.0985 28.1016 63.937 28.2231 63.8158 28.598C62.6244 32.1035 61.4128 35.5888 60.2114 39.0842C59.7974 40.2899 59.3935 41.4955 58.9695 42.7316C59.6964 42.7316 60.3628 42.7113 61.0393 42.7417C61.3523 42.7518 61.4734 42.6404 61.5643 42.3466C61.7965 41.5867 62.0691 40.8471 62.2912 40.0872C62.3619 39.8441 62.4831 39.7731 62.7153 39.7731C64.462 39.7833 66.2087 39.7833 67.9554 39.7731C68.1977 39.7731 68.3087 39.8441 68.3794 40.0872C68.6116 40.8572 68.8943 41.6171 69.1367 42.3871C69.2073 42.5999 69.2679 42.7417 69.5405 42.7316C70.2473 42.7113 70.9439 42.7214 71.6709 42.7214C71.6608 42.6302 71.6507 42.5695 71.6305 42.5087ZM67.0972 37.5341C65.926 37.5138 64.7447 37.5239 63.5735 37.5341C63.3312 37.5341 63.1393 37.5442 63.2605 37.1896C63.937 35.1835 64.6033 33.1775 65.2697 31.1816C65.2798 31.1512 65.3202 31.141 65.3909 31.0802C66.0673 33.1167 66.7135 35.1227 67.4001 37.1288C67.5212 37.4733 67.4505 37.5442 67.0972 37.5341Z" fill="#1A1A1A"/>
<path d="M131.048 16.5008C130.493 14.4948 129.332 12.9953 127.191 12.6204C125.061 12.2456 123.264 12.9143 122.002 14.7379C121.032 16.1361 120.841 17.7166 121.184 19.3377C121.628 21.4045 122.86 22.8229 124.95 23.3093C127.05 23.7956 128.958 23.441 130.422 21.6781C130.685 21.364 130.775 21.1614 130.311 20.9486C129.937 20.7764 129.594 20.5231 129.241 20.29C129.089 20.1887 128.988 20.1279 128.837 20.3204C127.979 21.4248 126.808 21.5666 125.556 21.3235C124.314 21.0803 123.456 20.1381 123.314 18.9425C123.496 18.9425 123.688 18.9425 123.869 18.9425C126.161 18.9425 128.443 18.9324 130.735 18.9527C131.038 18.9527 131.169 18.8919 131.189 18.5575C131.25 17.8585 131.23 17.1695 131.048 16.5008ZM123.496 17.1189C123.243 17.1189 123.284 16.9871 123.314 16.825C123.567 15.6093 124.667 14.6569 125.909 14.5758C127.363 14.4846 128.443 15.1533 128.897 16.4502C128.968 16.6528 129.009 16.8656 129.079 17.1189C127.181 17.1189 125.344 17.1189 123.496 17.1189Z" fill="#1A1A1A"/>
<path d="M93.1057 16.653C92.086 12.3268 88.0171 11.7189 85.4828 13.2994C83.3525 14.6267 82.4741 17.6256 83.4231 20.1687C84.2914 22.4888 86.6843 23.8262 89.2287 23.4513C90.6119 23.2487 91.7326 22.6408 92.5706 21.506C92.7221 21.3034 92.7423 21.1818 92.4899 21.0501C92.0658 20.8171 91.6518 20.5435 91.248 20.2801C91.0763 20.1687 90.9855 20.1889 90.8441 20.351C89.8143 21.4858 88.1584 21.7695 86.7954 21.0602C86.0886 20.6854 85.6343 20.118 85.3819 19.3581C85.2708 19.0339 85.3415 18.9529 85.6747 18.9529C86.856 18.9731 88.0272 18.963 89.2085 18.963C90.3898 18.963 91.561 18.9529 92.7423 18.9731C93.0957 18.9833 93.2067 18.8718 93.2067 18.5273C93.2269 17.8891 93.2471 17.2609 93.1057 16.653ZM85.5737 17.1292C85.2607 17.1292 85.3112 16.9772 85.3516 16.7847C85.6646 15.4777 86.7954 14.5963 88.1786 14.576C89.572 14.5558 90.6321 15.3562 90.9855 16.7037C91.0158 16.8354 91.036 16.9569 91.0763 17.1292C89.2287 17.1191 87.4012 17.1191 85.5737 17.1292Z" fill="#1A1A1A"/>
<path d="M20.0067 3.34004C20.8649 3.64399 21.7332 3.95807 22.5914 4.26202C20.8851 5.30557 19.1889 6.36939 17.5936 7.57504C17.5129 7.63583 17.4523 7.70676 17.3715 7.77768C16.9576 8.36531 16.3417 8.71991 15.8066 9.1657C14.5445 10.2194 13.343 11.3339 12.2021 12.5193C11.0006 13.654 9.92031 14.9002 8.88037 16.1768C7.80005 17.5141 6.7904 18.8819 5.85142 20.3206C5.44756 20.969 5.0538 21.6174 4.66004 22.276C4.57926 22.4178 4.51869 22.5799 4.33695 22.6306C4.06434 22.357 4.08454 21.9416 3.87251 21.6478C3.42826 20.1382 2.97392 18.6387 2.71141 17.0785C2.48929 15.7512 2.42871 14.4139 2.42871 13.0664C2.53977 11.4656 2.80228 9.89518 3.47875 8.41597C5.00332 5.08267 7.66879 3.26912 11.2026 2.64096C11.879 2.51938 12.5656 2.48899 13.2522 2.40794C15.5542 2.33702 17.7956 2.76254 20.0067 3.34004Z" fill="white"/>
<path d="M47.4795 30.8879C47.7925 32.1645 48.0954 33.441 48.2872 34.7379C48.4185 36.2576 48.469 37.7774 48.2872 39.2971C47.9843 41.2018 47.3887 42.985 46.1973 44.5351C44.4607 46.8147 42.088 47.9799 39.3216 48.4155C39.0086 48.4662 38.6855 48.4966 38.3725 48.5371C35.8988 48.7195 33.4858 48.3446 31.103 47.7164C30.1741 47.4024 29.2352 47.0883 28.3063 46.7742C28.4779 46.3791 28.902 46.3081 29.1847 46.065C29.2352 45.9535 29.326 45.8826 29.4371 45.8218C31.3453 44.6668 33.1425 43.3599 34.8791 41.9516C36.2926 40.756 37.6758 39.52 38.9581 38.1927C39.1095 38.0306 39.2711 37.8888 39.3922 37.7064C40.5331 36.5109 41.6236 35.2647 42.6231 33.9577C43.9054 32.3468 45.0362 30.6447 46.066 28.8717C46.1569 28.7096 46.2679 28.5677 46.4295 28.4664C46.4699 28.4259 46.5103 28.3955 46.5506 28.355C46.9545 29.1554 47.1463 30.047 47.4795 30.8879Z" fill="white"/>
<path d="M3.33757 31.0903C3.65056 30.1785 3.97365 29.2565 4.28664 28.3447C4.51886 28.7195 4.76117 29.0944 4.99339 29.4693C5.19532 29.601 5.31648 29.8137 5.43764 30.0062C6.29584 31.4247 7.2853 32.7418 8.27475 34.0589C9.36518 35.4773 10.5768 36.7944 11.7883 38.1115C12.9696 39.3273 14.2115 40.4722 15.5038 41.5664C17.0082 42.8429 18.5833 44.0182 20.229 45.1023C20.441 45.2441 20.6632 45.3657 20.8045 45.5785C21.3699 45.9432 21.9454 46.2978 22.5512 46.6929C21.7637 47.0881 20.9559 47.2502 20.1987 47.5744C18.8963 47.8885 17.6039 48.2329 16.2712 48.4052C14.4841 48.6382 12.697 48.6179 10.9099 48.314C8.85025 47.8783 7.02279 47.007 5.47803 45.5582C3.21641 43.1773 2.39859 40.2695 2.41879 37.0578C2.41879 36.7843 2.41879 36.5208 2.40869 36.2473C2.57024 34.5047 2.88323 32.7823 3.33757 31.0903Z" fill="white"/>
<path d="M25.5597 5.57902C27.3569 6.58205 29.144 7.59521 30.8099 8.811C31.4157 9.25679 32.0215 9.70258 32.6273 10.1382C33.2936 10.4118 33.7581 10.9589 34.3033 11.4047C35.1918 12.1139 35.9591 12.9852 36.8274 13.7147C37.1808 14.0085 37.4433 14.3834 37.7462 14.7177C39.1597 16.1057 40.3814 17.666 41.593 19.2161C42.8853 21.0094 44.0868 22.8534 45.0965 24.829C45.1974 25.0215 45.3186 25.214 45.2984 25.4471C45.0359 25.9739 44.7835 26.5007 44.521 27.0377C44.4907 27.443 44.2282 27.7368 44.0363 28.0711C43.1579 29.601 42.1382 31.0296 41.078 32.4378C39.9876 33.8157 38.8568 35.1531 37.6351 36.4297C36.2216 37.8684 34.7677 39.2665 33.1826 40.5127C31.4258 41.9717 29.5478 43.2685 27.579 44.4235C27.4478 44.5046 27.2963 44.5248 27.155 44.5552C27.0237 44.616 26.8823 44.6768 26.7511 44.7477C25.4184 45.4873 25.4184 45.4873 24.0654 44.7376C23.6515 44.5147 23.2476 44.2817 22.8336 44.0588C22.349 43.998 21.9956 43.6535 21.612 43.4103C20.0066 42.3769 18.4619 41.2523 17.0281 39.996C15.6752 38.8815 14.4031 37.6759 13.1814 36.4196C12.0203 35.1734 10.8996 33.8867 9.83943 32.5594C8.78939 31.1815 7.82012 29.753 6.92153 28.2738C6.81047 28.1015 6.77009 27.8989 6.69941 27.7165C6.35613 26.9364 5.84121 26.2373 5.53831 25.4369C5.52821 25.1836 5.64937 24.981 5.76043 24.7784C6.34603 23.7146 6.92153 22.6507 7.598 21.6376C8.51678 20.2293 9.48605 18.8717 10.5462 17.5647C11.364 16.5718 12.1818 15.5789 13.1107 14.6974C13.2924 14.5252 13.4439 14.3226 13.5852 14.1199C15.1098 12.6813 16.6243 11.2324 18.2801 9.95587C18.4619 9.81402 18.6436 9.65192 18.8859 9.61139C20.8446 8.2031 22.8336 6.84547 24.9943 5.76139C25.176 5.67021 25.3376 5.51823 25.5597 5.57902Z" fill="white"/>
<path d="M27.1553 44.5553C29.0231 43.4003 30.8809 42.225 32.5872 40.8471C32.7689 40.7052 32.9507 40.5634 33.1425 40.4216C33.3444 40.3709 33.4454 40.5229 33.5665 40.6242C33.8997 40.918 34.2531 41.2017 34.6267 41.455C34.8185 41.5867 35.081 41.6981 34.9498 42.0224C33.1526 43.5421 31.2645 44.9403 29.1948 46.075C28.6193 45.4266 27.862 45.0213 27.1553 44.5553Z" fill="#822B91"/>
<path d="M17.0685 39.915C18.906 41.4145 20.8345 42.8025 22.8437 44.0588C22.2985 44.5553 21.7532 45.0517 21.0263 45.2746C20.8849 45.3152 20.8244 45.4367 20.8143 45.5887C18.906 44.4438 17.129 43.1166 15.453 41.6576C15.3723 41.4651 15.4934 41.3334 15.5843 41.2017C15.8872 40.7965 16.2103 40.4114 16.5939 40.0771C16.7252 39.9555 16.8463 39.7732 17.0685 39.915Z" fill="#6F2691"/>
<path d="M18.8862 9.61159C17.0587 11.0503 15.3322 12.5903 13.6663 14.2215C12.8687 13.877 12.4547 13.1779 12.1013 12.4484C13.7168 10.7362 15.4937 9.1962 17.3717 7.7879C17.8866 8.38567 18.3914 9.00369 18.8862 9.61159Z" fill="#B13364"/>
<path d="M45.2985 25.4471C44.1879 23.2891 42.8955 21.2526 41.4921 19.277C41.4517 19.1757 41.482 19.0743 41.5527 19.0034C41.9464 18.5779 42.3301 18.1321 42.8046 17.7978C42.9359 17.6964 43.0873 17.6053 43.259 17.7167C44.3898 19.1351 45.349 20.6751 46.2678 22.2354C46.3485 22.3772 46.4495 22.5089 46.5404 22.6508C46.1971 23.6032 45.7932 24.5454 45.2985 25.4471Z" fill="#5B218F"/>
<path d="M40.9771 32.3976C41.7848 31.2426 42.643 30.1281 43.3699 28.9224C43.7536 28.2943 44.1372 27.6661 44.5209 27.038C44.955 27.7877 45.7325 28.0714 46.4291 28.4665C45.3488 30.4321 44.1069 32.2963 42.7035 34.0389C42.1583 34.1301 41.8857 33.735 41.6636 33.3702C41.4617 33.0156 41.2497 32.6813 40.9771 32.3976Z" fill="#C53651"/>
<path d="M6.69935 27.7166C7.64842 29.216 8.59749 30.7155 9.67781 32.1339C9.76868 32.2454 9.84946 32.3771 9.93023 32.4885C9.96052 32.5493 9.97061 32.6304 9.92013 32.681C9.52637 33.1572 9.11241 33.6131 8.65807 34.0387C8.54701 34.14 8.39556 34.2717 8.21382 34.14C7.01234 32.681 5.94211 31.1208 4.99304 29.4794C5.06372 29.4693 5.14449 29.4896 5.18488 29.4592C5.76038 28.9222 6.30559 28.3852 6.69935 27.7166Z" fill="#B33362"/>
<path d="M7.68947 21.6682C6.97262 22.9245 6.26587 24.1808 5.54902 25.4371C5.07448 24.5354 4.61004 23.6236 4.34753 22.6307C4.78168 21.81 5.26631 21.0197 5.78124 20.2498C5.90239 20.1586 6.04374 20.1484 6.15481 20.2396C6.60915 20.6348 7.14426 20.9387 7.58851 21.344C7.66928 21.4351 7.73995 21.5365 7.68947 21.6682Z" fill="#5D207F"/>
<path d="M37.6859 14.7786C36.1008 13.1272 34.3945 11.6075 32.6276 10.1384C32.8901 9.64193 33.3343 9.28733 33.6574 8.85167C33.8089 8.6389 33.9502 8.4464 33.9502 8.17285C35.9291 9.66219 37.7364 11.3339 39.4124 13.1475C38.8975 13.7554 38.2715 14.2417 37.6859 14.7786Z" fill="#972E7B"/>
<path d="M37.686 14.7785C37.6961 14.5455 37.8577 14.4037 38.0192 14.3125C38.5442 13.9883 38.837 13.3905 39.4226 13.1575C40.826 14.5759 42.1184 16.0855 43.2694 17.7066C42.492 18.0206 42.0275 18.6893 41.4924 19.2769C40.2808 17.7268 39.0289 16.2172 37.686 14.7785Z" fill="#842B8E"/>
<path d="M7.68921 21.6682C7.11371 21.1109 6.50792 20.5841 5.77087 20.2497C6.68966 18.8009 7.68921 17.4028 8.80993 16.1059C8.90079 16.0654 8.98157 16.0857 9.04215 16.1464C9.44601 16.5517 9.92054 16.8557 10.385 17.1697C10.5263 17.2711 10.6879 17.3926 10.6273 17.6155C9.61765 18.9428 8.62819 20.2903 7.68921 21.6682Z" fill="#7F287F"/>
<path d="M10.6277 17.6153C10.456 17.3418 10.2137 17.1493 9.92092 17.0075C9.47667 16.7947 9.19397 16.3793 8.8103 16.0956C9.81995 14.7886 10.9104 13.5728 12.1018 12.428C12.1421 12.4482 12.2128 12.4685 12.233 12.4989C12.5864 13.1777 13.1114 13.7046 13.6768 14.201C12.6571 15.3459 11.6373 16.4806 10.6277 17.6153Z" fill="#9D2F77"/>
<path d="M34.9494 42.0122C34.8787 41.6171 34.5052 41.5563 34.2527 41.3537C33.8691 41.0599 33.5157 40.7255 33.1522 40.4115C34.7071 39.145 36.1509 37.7469 37.5846 36.3487C38.2106 36.7033 38.7053 37.2403 39.3616 37.5645C39.4423 37.605 39.4625 37.6962 39.4827 37.7772C38.3923 39.0538 37.1403 40.1582 35.8884 41.2625C35.5754 41.5259 35.2624 41.759 34.9494 42.0122Z" fill="#9C3078"/>
<path d="M39.4733 37.7673C38.9584 37.4329 38.4031 37.1594 37.9488 36.744C37.8175 36.6224 37.6661 36.5109 37.5752 36.3488C38.7464 35.0621 39.8772 33.745 40.9777 32.3975C41.3917 32.4583 41.5229 32.8028 41.6643 33.1169C41.8763 33.5829 42.2297 33.8767 42.7143 34.0287C41.7148 35.3559 40.6546 36.6123 39.4733 37.7673Z" fill="#B03364"/>
<path d="M17.0691 39.9151C16.3522 40.3305 15.8979 40.9789 15.4637 41.6577C14.131 40.5939 12.9093 39.4288 11.7381 38.1928C11.6069 38.0003 11.7381 37.8685 11.8492 37.7571C12.2227 37.3822 12.5559 36.9668 12.8689 36.5312C12.9598 36.3995 13.0608 36.2374 13.2728 36.3589C14.5046 37.5747 15.7666 38.7601 17.0691 39.9151Z" fill="#8E2D85"/>
<path d="M13.2622 36.3488C12.9391 36.4198 12.8583 36.7338 12.717 36.9567C12.4444 37.4127 11.9194 37.6659 11.7275 38.1827C10.4655 36.9061 9.26399 35.5788 8.20386 34.1199C8.97119 33.7855 9.35486 33.0257 9.92026 32.4786C11.0006 33.8058 12.1213 35.0925 13.2622 36.3488Z" fill="#9F3075"/>
<path d="M37.3625 25.5382C37.3726 26.3285 36.8173 27.0478 36.05 27.2403C35.2625 27.443 34.4547 27.0985 34.1014 26.3589C33.96 26.0651 33.7985 25.9942 33.4956 25.9942C28.1141 26.0043 22.7327 26.0043 17.3411 25.9942C17.0281 25.9942 16.8868 26.0853 16.7454 26.369C16.382 27.1086 15.5742 27.443 14.7867 27.2403C14.0295 27.0478 13.4944 26.3589 13.4843 25.5788C13.4742 24.7784 14.0194 24.0793 14.8069 23.8767C15.5944 23.674 16.3921 24.0084 16.7555 24.7581C16.8969 25.0519 17.0584 25.1228 17.3613 25.1228C22.7428 25.1127 28.1242 25.1127 33.5158 25.1228C33.8287 25.1228 33.9802 25.0418 34.1114 24.748C34.4648 24.0286 35.2524 23.6842 36.0197 23.8665C36.7971 24.0692 37.3524 24.7378 37.3625 25.5382Z" fill="#0A21FE"/>
<path d="M34.1925 22.1746C33.617 22.1442 33.0516 21.8403 32.7588 21.1817C32.6174 20.8677 32.466 20.8271 32.1833 20.9183C31.8097 21.0298 31.5169 21.2324 31.3049 21.5566C31.0222 21.972 30.7496 22.3975 30.4568 22.8129C30.0024 23.4614 29.3664 23.7957 28.5687 23.8058C26.4687 23.8058 24.3585 23.8058 22.2584 23.8058C21.4608 23.8058 20.8247 23.4816 20.3704 22.8231C20.0877 22.4178 19.8252 22.0125 19.5526 21.6073C19.4011 21.3844 19.2194 21.1919 18.967 21.0602C18.4419 20.7866 18.2905 20.817 17.9977 21.3236C17.5938 22.0024 16.7962 22.3367 16.0491 22.124C15.2817 21.9112 14.7567 21.2223 14.7567 20.4421C14.7567 19.662 15.3019 18.9528 16.039 18.7603C16.8063 18.5577 17.614 18.8616 17.9775 19.5708C18.1491 19.9052 18.3612 20.0166 18.6944 20.0571C19.3304 20.1382 19.8151 20.4827 20.1785 20.9994C20.4713 21.4148 20.7439 21.8403 21.0266 22.2557C21.3194 22.6914 21.7233 22.9142 22.2584 22.9142C24.3484 22.9041 26.4283 22.9041 28.5182 22.9142C29.0534 22.9142 29.4572 22.6914 29.75 22.2658C30.0125 21.891 30.2548 21.5161 30.5073 21.1311C30.9212 20.5029 31.4765 20.0977 32.2338 20.0369C32.5669 20.0065 32.6679 19.814 32.7992 19.5708C33.2131 18.8211 34.0814 18.5171 34.8891 18.811C35.6767 19.0946 36.1714 19.9356 36.0099 20.736C35.8786 21.5667 35.1718 22.1645 34.1925 22.1746Z" fill="#0921FE"/>
<path d="M34.0307 32.4076C33.4855 32.3873 32.9504 32.0733 32.6374 31.4451C32.5263 31.2222 32.4052 31.1209 32.1629 31.0905C31.5066 31.0094 31.0018 30.6751 30.6282 30.1381C30.3354 29.7227 30.0628 29.2972 29.7801 28.8818C29.4873 28.4462 29.0834 28.2233 28.5483 28.2233C26.4583 28.2233 24.3785 28.2233 22.2885 28.2233C21.7534 28.2233 21.3495 28.4462 21.0567 28.8818C20.7942 29.277 20.5317 29.662 20.2692 30.0571C19.8754 30.6447 19.3302 31.0398 18.6234 31.0905C18.3004 31.1209 18.2701 31.3438 18.159 31.5363C17.634 32.4177 16.5032 32.671 15.6652 32.0834C14.8373 31.5059 14.6757 30.3002 15.332 29.5404C15.9984 28.7602 17.1696 28.6995 17.8864 29.4188C18.0278 29.5606 18.1691 29.7329 18.2196 29.9152C18.3306 30.3002 18.5629 30.2698 18.8355 30.1584C19.1384 30.0368 19.3807 29.8342 19.5624 29.5505C19.8451 29.125 20.1177 28.7096 20.4105 28.2942C20.8447 27.6762 21.4505 27.3418 22.2077 27.3317C24.3583 27.3216 26.5189 27.3216 28.6695 27.3317C29.4267 27.3317 30.0224 27.6863 30.4667 28.2942C30.7494 28.6893 31.0119 29.1047 31.2845 29.51C31.4258 29.7227 31.5975 29.9051 31.8196 30.0368C32.2638 30.3104 32.4254 30.2597 32.6778 29.8038C33.0917 29.0642 33.9701 28.7197 34.7577 28.9933C35.5755 29.277 36.0601 30.0976 35.9087 30.9588C35.737 31.8098 35.0303 32.3975 34.0307 32.4076Z" fill="#0921FE"/>
<path d="M25.3681 21.577C23.5709 21.9519 22.43 21.1008 21.6425 19.5811C21.5718 19.4494 21.4709 19.3278 21.4002 19.1961C21.0771 18.6692 20.7944 18.2032 19.9867 18.3146C19.3001 18.4159 18.6539 17.727 18.5025 17.0279C18.3308 16.2478 18.6842 15.4575 19.3607 15.0928C20.0372 14.728 20.855 14.8395 21.4103 15.3866C21.9555 15.9236 22.1271 16.7341 21.7334 17.3724C21.5011 17.7371 21.6021 17.96 21.8141 18.2437C22.2382 18.8313 22.6319 19.4392 23.0358 20.037C23.3185 20.4625 23.7123 20.6753 24.2272 20.6753C25.0147 20.6651 25.8022 20.6651 26.5999 20.6753C27.135 20.6854 27.5287 20.4524 27.8215 20.0167C28.2557 19.3784 28.6797 18.7199 29.124 18.0917C29.2855 17.8688 29.2855 17.7169 29.1442 17.4737C28.6797 16.6733 28.912 15.7108 29.649 15.1941C30.3961 14.6774 31.3856 14.799 31.9611 15.498C32.4356 16.0755 32.4962 16.724 32.1933 17.3926C31.9005 18.0411 31.2443 18.4261 30.5072 18.3349C30.1336 18.2944 29.9317 18.4058 29.75 18.7199C29.4067 19.2974 28.9927 19.8344 28.6293 20.4017C28.1143 21.2021 27.3975 21.6175 26.4383 21.5669C26.0748 21.5567 25.7215 21.577 25.3681 21.577Z" fill="#0921FE"/>
<path d="M25.3985 30.4115C23.9648 30.0974 23.0258 30.7154 22.42 31.9819C22.3797 32.0731 22.309 32.1541 22.2484 32.2352C21.8748 32.7012 21.6123 33.0964 22.0263 33.765C22.4301 34.4033 22.097 35.2746 21.4912 35.7407C20.9157 36.1865 20.0575 36.2068 19.4618 35.8015C18.8257 35.3658 18.5531 34.5654 18.7853 33.8461C19.0276 33.0964 19.6738 32.5695 20.4411 32.6303C20.8551 32.6607 21.0368 32.4986 21.2287 32.1946C21.582 31.6374 21.9556 31.1004 22.3292 30.5635C22.7835 29.9049 23.4095 29.5706 24.2071 29.5604C25.0148 29.5604 25.8226 29.5604 26.6303 29.5604C27.4279 29.5604 28.0539 29.8948 28.5082 30.5533C28.902 31.1207 29.2958 31.6881 29.6593 32.2757C29.8309 32.5492 30.0025 32.6506 30.3357 32.6303C31.1737 32.5796 31.8704 33.1369 32.0824 33.9373C32.2843 34.6769 31.9209 35.4975 31.2444 35.8825C30.5477 36.2675 29.6693 36.1358 29.1241 35.5482C28.5789 34.9707 28.4981 34.0994 28.9626 33.4104C29.1241 33.1673 29.114 33.0153 28.9525 32.7924C28.5991 32.3061 28.2558 31.7995 27.9428 31.2828C27.5693 30.6749 27.0543 30.3912 26.3476 30.4216C26.0346 30.4216 25.7115 30.4115 25.3985 30.4115Z" fill="#0921FE"/>
<path d="M35.6362 26.43C35.1717 26.4402 34.7578 26.045 34.7578 25.579C34.7477 25.1231 35.1212 24.7381 35.5756 24.7178C36.0602 24.6975 36.454 25.0521 36.4742 25.5385C36.4843 26.0045 36.1107 26.4098 35.6362 26.43Z" fill="white"/>
<path d="M15.2312 24.7074C15.7057 24.7175 16.0894 25.1127 16.0793 25.5888C16.0692 26.0346 15.6755 26.4196 15.2312 26.4298C14.7668 26.4399 14.3629 26.0346 14.3629 25.5686C14.3629 25.0823 14.7466 24.7074 15.2312 24.7074Z" fill="white"/>
<path d="M34.3335 21.2729C33.8488 21.283 33.4551 20.898 33.4551 20.4218C33.4551 19.976 33.8387 19.5708 34.283 19.5505C34.7575 19.5302 35.1614 19.9152 35.1715 20.3914C35.1816 20.898 34.8282 21.2729 34.3335 21.2729Z" fill="white"/>
<path d="M17.3718 20.4118C17.3819 20.888 16.9983 21.2831 16.5136 21.2831C16.0391 21.2831 15.6756 20.9387 15.6554 20.4726C15.6353 19.9863 16.0088 19.581 16.4733 19.5709C16.9478 19.5405 17.3618 19.9458 17.3718 20.4118Z" fill="white"/>
<path d="M34.2025 31.516C33.7078 31.5262 33.3342 31.1614 33.3342 30.665C33.3342 30.1989 33.6977 29.8139 34.1419 29.7937C34.5963 29.7734 35.0304 30.1685 35.0405 30.6346C35.0607 31.1108 34.6871 31.5059 34.2025 31.516Z" fill="white"/>
<path d="M17.5026 30.6649C17.5026 31.1614 17.1291 31.516 16.6343 31.5058C16.1699 31.4957 15.7963 31.131 15.7963 30.6751C15.7862 30.209 16.2002 29.7936 16.6545 29.7936C17.1291 29.7936 17.5026 30.1786 17.5026 30.6649Z" fill="white"/>
<path d="M30.6181 17.4938C30.1436 17.4836 29.77 17.0784 29.7902 16.5921C29.8104 16.1057 30.184 15.7511 30.6888 15.7714C31.1432 15.7917 31.5167 16.1868 31.5066 16.6326C31.4965 17.1088 31.0826 17.5039 30.6181 17.4938Z" fill="white"/>
<path d="M21.0466 16.6126C21.0567 17.0989 20.6731 17.4941 20.2086 17.4941C19.7442 17.4941 19.3403 17.0787 19.3403 16.6228C19.3504 16.1668 19.7139 15.792 20.1682 15.7818C20.6731 15.7717 21.0365 16.1162 21.0466 16.6126Z" fill="white"/>
<path d="M21.2993 34.3527C21.2993 34.8188 20.8853 35.2241 20.431 35.2241C19.9564 35.2241 19.5829 34.8188 19.593 34.3426C19.6031 33.8563 19.9766 33.5017 20.4714 33.5118C20.9257 33.5219 21.2993 33.9069 21.2993 34.3527Z" fill="white"/>
<path d="M30.4464 33.512C30.931 33.5424 31.2743 33.9375 31.244 34.434C31.2137 34.8899 30.82 35.2547 30.3757 35.2344C29.9113 35.2141 29.5175 34.7886 29.5377 34.3327C29.5579 33.8362 29.9618 33.4816 30.4464 33.512Z" fill="white"/>
</svg>
