<svg width="24" height="24" viewBox="0 0 24 24" fill="none" xmlns="http://www.w3.org/2000/svg">
<path d="M2.69231 1.84615H6.38461V0H8.23077V1.84615H15.6154V0H17.4615V1.84615H21.1538C22.1692 1.84615 23 2.67692 23 3.69231V22.1538C23 23.1692 22.1692 24 21.1538 24H2.69231C1.67692 24 0.846153 23.1692 0.846153 22.1538V3.69231C0.846153 2.67692 1.67692 1.84615 2.69231 1.84615ZM2.69231 22.1538H21.1538V9.23077H2.69231V22.1538ZM2.69231 7.38462H21.1538V3.69231H17.4615V5.53846H15.6154V3.69231H8.23077V5.53846H6.38461V3.69231H2.69231V7.38462Z" fill="#1A1B1F"/>
</svg>
