<svg width="24" height="24" viewBox="0 0 24 24" fill="none" xmlns="http://www.w3.org/2000/svg">
<path d="M6.07766 0.559061L7.47142 0.139858C8.23493 -0.0903771 9.05613 -0.0349534 9.78178 0.295787C10.5074 0.626527 11.088 1.20999 11.415 1.9373L12.4923 4.33309C12.7735 4.95867 12.8518 5.65659 12.7163 6.32894C12.5807 7.00129 12.238 7.61433 11.7363 8.08203L9.95201 9.7457C9.89985 9.79431 9.86681 9.85997 9.85885 9.93082C9.8063 10.405 10.1276 11.3282 10.868 12.6121C11.4067 13.5448 11.8952 14.2005 12.3096 14.5671C12.5986 14.8239 12.7574 14.8789 12.8255 14.8597L15.2261 14.1252C15.8817 13.9247 16.5835 13.9344 17.2334 14.1528C17.8832 14.3713 18.4483 14.7876 18.8496 15.3434L20.3795 17.4645C20.8448 18.1096 21.0602 18.9015 20.9857 19.6933C20.9113 20.4851 20.552 21.223 19.9747 21.77L18.9165 22.7733C18.3549 23.3051 17.6651 23.6824 16.9144 23.8685C16.1636 24.0545 15.3775 24.043 14.6325 23.835C11.3434 22.9166 8.39463 20.141 5.75281 15.5656C3.10741 10.9842 2.17943 7.0382 3.03456 3.72638C3.22705 2.98152 3.60817 2.29882 4.14117 1.74406C4.67418 1.18929 5.3411 0.781183 6.07766 0.559061ZM6.5948 2.27529C6.15299 2.4084 5.7529 2.65303 5.43307 2.98563C5.11323 3.31822 4.88443 3.72757 4.7687 4.17424C4.04972 6.95938 4.8726 10.4575 7.30422 14.6699C9.73226 18.8762 12.3466 21.3365 15.115 22.1104C15.5619 22.2349 16.0333 22.2415 16.4835 22.1298C16.9336 22.018 17.3472 21.7916 17.684 21.4727L18.7433 20.4694C19.0059 20.2208 19.1692 19.8853 19.203 19.5252C19.2369 19.1652 19.1389 18.8052 18.9273 18.512L17.3985 16.392C17.2161 16.1391 16.9591 15.9496 16.6635 15.8503C16.3679 15.7509 16.0486 15.7465 15.7504 15.8379L13.3439 16.5748C11.9465 16.9904 10.6782 15.8666 9.31663 13.5078C8.3994 11.9194 7.97184 10.6892 8.07813 9.73257C8.13427 9.23573 8.36477 8.77712 8.73023 8.43554L10.5145 6.77187C10.7427 6.5593 10.8985 6.28063 10.9602 5.97497C11.0219 5.66931 10.9863 5.352 10.8585 5.06759L9.78122 2.6718C9.63255 2.34146 9.36885 2.07645 9.03925 1.92615C8.70965 1.77585 8.33665 1.75053 7.98975 1.85489L6.5948 2.27529Z" fill="#1A1B1F"/>
</svg>
