<svg width="36" height="36" viewBox="0 0 36 36" fill="none" xmlns="http://www.w3.org/2000/svg">
<path d="M16.4997 3C19.4135 3.00019 22.2278 4.06032 24.4176 5.98265C26.6074 7.90498 28.0231 10.5582 28.4007 13.4475L31.7757 18.756C31.9977 19.1055 31.9527 19.626 31.4382 19.848L28.4997 21.105V25.5C28.4997 26.2956 28.1836 27.0587 27.621 27.6213C27.0584 28.1839 26.2954 28.5 25.4997 28.5H22.5012L22.4997 33H8.99971V27.459C8.99971 25.689 8.34571 24.0135 7.13371 22.5015C5.72034 20.7368 4.83428 18.6087 4.57759 16.3624C4.32091 14.116 4.70405 11.8429 5.68287 9.80485C6.6617 7.76678 8.19638 6.0467 10.1101 4.84277C12.0239 3.63884 14.2388 3.00006 16.4997 3ZM16.4997 6C14.8041 5.99993 13.1429 6.47887 11.7076 7.38165C10.2723 8.28442 9.12119 9.57431 8.38692 11.1027C7.65266 12.6311 7.36511 14.3359 7.55738 16.0206C7.74966 17.7052 8.41394 19.3013 9.47371 20.625C11.1147 22.671 11.9997 25.0005 11.9997 27.459V30H19.4997L19.5027 25.5H25.4997V19.128L27.8247 18.132L25.5102 14.4945L25.4247 13.8315C25.1408 11.6654 24.0787 9.67642 22.4366 8.2355C20.7945 6.79458 18.6844 6.00003 16.4997 6ZM15.7047 11.6445L16.4997 12.4395L17.2947 11.6445C17.5368 11.3937 17.8264 11.1937 18.1467 11.0561C18.4669 10.9184 18.8113 10.8459 19.1599 10.8428C19.5084 10.8397 19.8541 10.9061 20.1767 11.038C20.4993 11.1699 20.7925 11.3648 21.039 11.6112C21.2855 11.8576 21.4805 12.1507 21.6125 12.4733C21.7446 12.7958 21.8111 13.1415 21.8081 13.49C21.8052 13.8386 21.7328 14.183 21.5953 14.5033C21.4578 14.8236 21.2579 15.1133 21.0072 15.3555L16.4997 19.8645L11.9922 15.3555C11.7415 15.1133 11.5416 14.8236 11.4041 14.5033C11.2666 14.183 11.1943 13.8386 11.1913 13.49C11.1883 13.1415 11.2548 12.7958 11.3869 12.4733C11.5189 12.1507 11.7139 11.8576 11.9604 11.6112C12.207 11.3648 12.5001 11.1699 12.8227 11.038C13.1453 10.9061 13.491 10.8397 13.8396 10.8428C14.1881 10.8459 14.5325 10.9184 14.8528 11.0561C15.173 11.1937 15.4626 11.3937 15.7047 11.6445Z" fill="#36A793"/>
</svg>
