<svg width="24" height="25" viewBox="0 0 24 25" fill="none" xmlns="http://www.w3.org/2000/svg">
    <path d="M11 2.905a8.002 8.002 0 0 1 7.934 6.965l2.25 3.54c.148.232.118.58-.225.727l-1.96.838v2.93a2 2 0 0 1-2 2h-1.998l-.001 3H6v-3.694c0-1.18-.436-2.297-1.244-3.305a8 8 0 0 1 6.244-13zm0 2a6 6 0 0 0-4.684 9.75C7.41 16.02 8 17.572 8 19.211v1.694h5l.002-3H17v-4.248l1.55-.664-1.543-2.425-.057-.442A6 6 0 0 0 11 4.906zm-.53 3.763.53.53.53-.53a1.75 1.75 0 1 1 2.475 2.474L11 14.148l-3.005-3.006a1.75 1.75 0 1 1 2.475-2.474z" fill="#fff"/>
</svg>
