<svg width="24" height="25" viewBox="0 0 24 25" fill="none" xmlns="http://www.w3.org/2000/svg">
    <g clip-path="url(#x7yffog9la)" fill="#fff">
        <path d="M2.881 16.35c.055-1.84-.946-2.533-2.167-2.99-.406 1.574.714 2.884 2.167 2.99zM3.158 8.133c.778-1.667.133-2.704-.81-3.607-.99 1.287-.481 2.932.81 3.607zM3.597 12.773c-.054-1.84.946-2.535 2.168-2.992.404 1.574-.715 2.884-2.168 2.992zM3.597 15.61c-.054-1.84.946-2.534 2.168-2.99.404 1.573-.715 2.883-2.168 2.99zM3.597 9.937c-.054-1.84.946-2.536 2.168-2.993.404 1.575-.715 2.885-2.168 2.993zM2.881 13.514c.055-1.84-.946-2.535-2.167-2.991-.406 1.574.714 2.884 2.167 2.991zM2.881 10.679c.055-1.84-.946-2.537-2.167-2.994-.406 1.576.714 2.884 2.167 2.994zM16.67 24.556H6.803l4.934-8.548 4.933 8.548zm-7.907-1.132h5.947l-2.973-5.15-2.974 5.15zM1.44 18.733l20.904-5.687-.31-1.148-20.905 5.687.312 1.148zM16.191 1.143s.153 3.015 2.796 2.76c0 0 .298-2.52-2.796-2.76zM18.958 10.95a1.531 1.531 0 0 1-1.252.644c-.42 0-.833-.198-1.112-.476-.569-.62-1.307-2.009-1.307-2.009-.414-.84-.635-1.489-.635-2.146 0-1.398 1.132-2.611 2.534-2.611.663 0 1.3.259 1.773.723a2.525 2.525 0 0 1 1.771-.723c1.402 0 2.535 1.213 2.535 2.611 0 .657-.223 1.307-.636 2.146 0 0-.738 1.388-1.307 2.01-.278.277-.69.475-1.112.475a1.53 1.53 0 0 1-1.252-.644z"/>
    </g>
    <defs>
        <clipPath id="x7yffog9la">
            <path fill="#fff" transform="translate(0 .905)" d="M0 0h24v24H0z"/>
        </clipPath>
    </defs>
</svg>
