<svg width="24" height="24" viewBox="0 0 24 24" fill="none" xmlns="http://www.w3.org/2000/svg">
<path d="M16.1385 0.881894C15.8071 0.549576 15.4024 0.299618 14.9569 0.1521C14.5113 0.00458212 14.0374 -0.036383 13.5731 0.032495C13.1089 0.101373 12.6673 0.278174 12.2838 0.548696C11.9002 0.819217 11.5855 1.17592 11.3649 1.59014L7.32346 9.1728L1.69948 11.0475C1.53759 11.1012 1.39214 11.1955 1.27695 11.3213C1.16176 11.4472 1.08067 11.6004 1.04137 11.7664C1.00208 11.9324 1.00589 12.1057 1.05244 12.2698C1.09899 12.4339 1.18674 12.5834 1.30735 12.704L5.60285 16.9975L0.306995 22.2934L0.0148926 24L1.72349 23.7079L7.01735 18.412L11.3109 22.7075C11.4315 22.8282 11.581 22.9159 11.7451 22.9625C11.9092 23.009 12.0825 23.0128 12.2485 22.9735C12.4145 22.9342 12.5677 22.8531 12.6935 22.7379C12.8194 22.6228 12.9137 22.4773 12.9674 22.3154L14.8421 16.6934L22.4027 12.644C22.8148 12.4229 23.1696 12.1086 23.4386 11.7261C23.7077 11.3436 23.8836 10.9036 23.9524 10.441C24.0212 9.97845 23.981 9.50622 23.8349 9.06198C23.6888 8.61774 23.4409 8.21379 23.111 7.88235L16.1405 0.879894L16.1385 0.881894ZM13.1295 2.53047C13.203 2.39216 13.3079 2.27304 13.4359 2.1827C13.5639 2.09236 13.7112 2.03333 13.8662 2.01037C14.0211 1.9874 14.1793 2.00113 14.3279 2.05046C14.4766 2.0998 14.6116 2.18335 14.722 2.29439L21.6945 9.29284C21.8047 9.40332 21.8876 9.53806 21.9364 9.68628C21.9853 9.83451 21.9988 9.99211 21.9759 10.1465C21.9529 10.3009 21.8942 10.4477 21.8043 10.5753C21.7145 10.7029 21.596 10.8078 21.4584 10.8814L13.5476 15.1149C13.3224 15.2358 13.152 15.4384 13.0715 15.6811L11.5829 20.1486L3.86824 12.4339L8.33381 10.9454C8.57715 10.8639 8.77985 10.692 8.90001 10.4653L13.1295 2.53247V2.53047Z" fill="#D3D3D3"/>
</svg>
