<svg width="25" height="24" viewBox="0 0 25 24" fill="none" xmlns="http://www.w3.org/2000/svg">
<path d="M8.00337 1.00024C7.64893 1.00024 7.29795 1.07006 6.97049 1.2057C6.64303 1.34134 6.34548 1.54015 6.09485 1.79078C5.84422 2.04141 5.64541 2.33895 5.50977 2.66642C5.37413 2.99388 5.30432 3.34485 5.30432 3.6993V4.60258H4.40463C3.37062 4.60322 2.37911 5.01409 1.64773 5.74502C0.916353 6.47595 0.504869 7.46721 0.503598 8.50122L0.499999 15.6951C0.499842 16.0494 0.569468 16.4002 0.704903 16.7276C0.840337 17.055 1.03893 17.3525 1.28934 17.6031C1.53974 17.8538 1.83706 18.0526 2.16432 18.1883C2.49158 18.3241 2.84237 18.394 3.19665 18.3942H5.30672V19.8936C5.30672 20.6095 5.59108 21.296 6.09725 21.8022C6.60342 22.3083 7.28994 22.5927 8.00577 22.5927H17.0026C17.7185 22.5927 18.405 22.3083 18.9111 21.8022C19.4173 21.296 19.7017 20.6095 19.7017 19.8936V18.3942H21.8009C22.5168 18.3942 23.2033 18.1098 23.7095 17.6036C24.2156 17.0975 24.5 16.4109 24.5 15.6951V8.50242C24.5 7.46844 24.0893 6.4768 23.3581 5.74567C22.627 5.01453 21.6353 4.60378 20.6014 4.60378L19.7029 4.60258L19.7017 3.6993C19.7017 2.98347 19.4173 2.29695 18.9111 1.79078C18.405 1.28461 17.7185 1.00024 17.0026 1.00024H8.00337V1.00024ZM8.00577 13.5958H17.0026C17.2412 13.5958 17.4701 13.6906 17.6388 13.8593C17.8075 14.0281 17.9023 14.2569 17.9023 14.4955V19.8936C17.9023 20.3903 17.4993 20.7933 17.0026 20.7933H8.00577C7.76716 20.7933 7.53832 20.6985 7.3696 20.5298C7.20087 20.3611 7.10609 20.1322 7.10609 19.8936V14.4955C7.10609 14.2569 7.20087 14.0281 7.3696 13.8593C7.53832 13.6906 7.76716 13.5958 8.00577 13.5958V13.5958ZM4.40463 6.40315H20.6014C21.1581 6.40315 21.6921 6.62433 22.0858 7.01801C22.4795 7.4117 22.7006 7.94566 22.7006 8.50242V15.6951C22.7006 16.1917 22.2976 16.5948 21.8009 16.5948H19.7017V14.4955C19.7017 13.7797 19.4173 13.0932 18.9111 12.587C18.405 12.0808 17.7185 11.7965 17.0026 11.7965H8.00577C7.28994 11.7965 6.60342 12.0808 6.09725 12.587C5.59108 13.0932 5.30672 13.7797 5.30672 14.4955V16.5948H3.16786C2.93481 16.587 2.71391 16.4889 2.55184 16.3213C2.38977 16.1536 2.29924 15.9295 2.29937 15.6963L2.30297 8.50242C2.30424 7.94563 2.52615 7.41205 2.92008 7.01857C3.31401 6.62509 3.84785 6.40379 4.40463 6.40315V6.40315ZM8.00337 2.79961H17.0026C17.2412 2.79961 17.4701 2.8944 17.6388 3.06313C17.8075 3.23185 17.9023 3.46069 17.9023 3.6993L17.9035 4.60258H7.10369V3.6993C7.10369 3.46069 7.19848 3.23185 7.3672 3.06313C7.53592 2.8944 7.76476 2.79961 8.00337 2.79961V2.79961Z" fill="#1A1B1F"/>
</svg>
