<svg width="24" height="24" viewBox="0 0 24 24" fill="none" xmlns="http://www.w3.org/2000/svg">
<path d="M19.25 9.75C19.0511 9.75 18.8603 9.82902 18.7197 9.96967C18.579 10.1103 18.5 10.3011 18.5 10.5V12C18.5 13.5913 17.8679 15.1174 16.7426 16.2426C15.6174 17.3679 14.0913 18 12.5 18C10.9087 18 9.38258 17.3679 8.25736 16.2426C7.13214 15.1174 6.5 13.5913 6.5 12V10.5C6.5 10.3011 6.42098 10.1103 6.28033 9.96967C6.13968 9.82902 5.94891 9.75 5.75 9.75C5.55109 9.75 5.36032 9.82902 5.21967 9.96967C5.07902 10.1103 5 10.3011 5 10.5V12C4.99998 13.8593 5.69058 15.6523 6.93782 17.0312C8.18506 18.4101 9.90003 19.2766 11.75 19.4625V22.5H7.25C7.05109 22.5 6.86032 22.579 6.71967 22.7197C6.57902 22.8603 6.5 23.0511 6.5 23.25C6.5 23.4489 6.57902 23.6397 6.71967 23.7803C6.86032 23.921 7.05109 24 7.25 24H17.75C17.9489 24 18.1397 23.921 18.2803 23.7803C18.421 23.6397 18.5 23.4489 18.5 23.25C18.5 23.0511 18.421 22.8603 18.2803 22.7197C18.1397 22.579 17.9489 22.5 17.75 22.5H13.25V19.4625C15.1 19.2766 16.8149 18.4101 18.0622 17.0312C19.3094 15.6523 20 13.8593 20 12V10.5C20 10.3011 19.921 10.1103 19.7803 9.96967C19.6397 9.82902 19.4489 9.75 19.25 9.75Z" fill="#747575"/>
<path d="M9.5 12C9.5 12.7956 9.81607 13.5587 10.3787 14.1213C10.9413 14.6839 11.7044 15 12.5 15C13.2956 15 14.0587 14.6839 14.6213 14.1213C15.1839 13.5587 15.5 12.7956 15.5 12V4.5C15.5 3.70435 15.1839 2.94129 14.6213 2.37868C14.0587 1.81607 13.2956 1.5 12.5 1.5C11.7044 1.5 10.9413 1.81607 10.3787 2.37868C9.81607 2.94129 9.5 3.70435 9.5 4.5V12ZM12.5 0C13.6935 0 14.8381 0.474106 15.682 1.31802C16.5259 2.16193 17 3.30653 17 4.5V12C17 13.1935 16.5259 14.3381 15.682 15.182C14.8381 16.0259 13.6935 16.5 12.5 16.5C11.3065 16.5 10.1619 16.0259 9.31802 15.182C8.4741 14.3381 8 13.1935 8 12V4.5C8 3.30653 8.4741 2.16193 9.31802 1.31802C10.1619 0.474106 11.3065 0 12.5 0V0Z" fill="#747575"/>
</svg>
