<svg width="25" height="24" viewBox="0 0 25 24" fill="none" xmlns="http://www.w3.org/2000/svg">
<path d="M1.29532 11.745C2.17744 9.46324 3.70883 7.48996 5.70022 6.06906C7.69161 4.64817 10.0557 3.84193 12.5003 3.75C14.9449 3.84193 17.309 4.64817 19.3004 6.06906C21.2918 7.48996 22.8232 9.46324 23.7053 11.745C23.7649 11.9098 23.7649 12.0902 23.7053 12.255C22.8232 14.5368 21.2918 16.51 19.3004 17.9309C17.309 19.3518 14.9449 20.1581 12.5003 20.25C10.0557 20.1581 7.69161 19.3518 5.70022 17.9309C3.70883 16.51 2.17744 14.5368 1.29532 12.255C1.23574 12.0902 1.23574 11.9098 1.29532 11.745ZM12.5003 18.75C16.4753 18.75 20.6753 15.8025 22.1978 12C20.6753 8.1975 16.4753 5.25 12.5003 5.25C8.52532 5.25 4.32532 8.1975 2.80282 12C4.32532 15.8025 8.52532 18.75 12.5003 18.75Z" fill="white"/>
<path d="M12.5 7.5C13.39 7.5 14.26 7.76392 15.0001 8.25839C15.7401 8.75285 16.3169 9.45566 16.6575 10.2779C16.9981 11.1002 17.0872 12.005 16.9135 12.8779C16.7399 13.7508 16.3113 14.5526 15.682 15.182C15.0526 15.8113 14.2508 16.2399 13.3779 16.4135C12.505 16.5872 11.6002 16.4981 10.7779 16.1575C9.95566 15.8169 9.25285 15.2401 8.75838 14.5001C8.26392 13.76 8 12.89 8 12C8 10.8065 8.4741 9.66193 9.31802 8.81802C10.1619 7.97411 11.3065 7.5 12.5 7.5ZM12.5 15C13.0933 15 13.6734 14.8241 14.1667 14.4944C14.6601 14.1648 15.0446 13.6962 15.2716 13.1481C15.4987 12.5999 15.5581 11.9967 15.4424 11.4147C15.3266 10.8328 15.0409 10.2982 14.6213 9.87868C14.2018 9.45912 13.6672 9.1734 13.0853 9.05764C12.5033 8.94189 11.9001 9.0013 11.3519 9.22836C10.8038 9.45542 10.3352 9.83994 10.0056 10.3333C9.67595 10.8266 9.5 11.4067 9.5 12C9.5 12.7957 9.81607 13.5587 10.3787 14.1213C10.9413 14.6839 11.7043 15 12.5 15Z" fill="white"/>
</svg>
