<svg width="12" height="12" viewBox="0 0 12 12" fill="none" xmlns="http://www.w3.org/2000/svg">
<path d="M10.1347 1.31882C10.3421 1.11207 10.618 0.997764 10.9043 1.00003C11.1906 1.0023 11.4649 1.12096 11.6692 1.33098C11.8736 1.541 11.992 1.82594 11.9996 2.12569C12.0072 2.42543 11.9033 2.71653 11.7098 2.93756L5.83628 10.6305C5.73529 10.7444 5.61339 10.8358 5.47788 10.8993C5.34238 10.9627 5.19604 10.9969 5.04763 10.9998C4.89922 11.0027 4.75177 10.9742 4.61412 10.916C4.47646 10.8579 4.35141 10.7712 4.24646 10.6613L0.351393 6.58205C0.242921 6.4762 0.15592 6.34855 0.095577 6.20672C0.0352345 6.06489 0.00278735 5.91178 0.000171818 5.75653C-0.00244371 5.60128 0.024826 5.44707 0.0803535 5.30309C0.135881 5.15912 0.218529 5.02834 0.323367 4.91854C0.428205 4.80875 0.553086 4.72219 0.690558 4.66404C0.828031 4.60588 0.97528 4.57732 1.12352 4.58006C1.27176 4.5828 1.41796 4.61678 1.55338 4.67998C1.68881 4.74318 1.8107 4.83429 1.91177 4.94789L4.99426 8.17459L10.1067 1.35274C10.1159 1.34087 10.1258 1.32954 10.1362 1.31882H10.1347Z" fill="#36A793"/>
</svg>
