<svg width="24" height="24" viewBox="0 0 24 24" fill="none" xmlns="http://www.w3.org/2000/svg">
<path d="M23.1768 22.0262L23.3536 21.8494L23.1768 21.6726L17.1908 15.6866C18.6124 13.8914 19.3164 11.6283 19.1601 9.33815C18.9986 6.97196 17.9311 4.75912 16.1796 3.15998C14.4281 1.56083 12.1275 0.698505 9.75641 0.752381C7.38532 0.806256 5.12628 1.77219 3.44923 3.44923C1.77219 5.12628 0.806256 7.38532 0.752381 9.75641C0.698505 12.1275 1.56083 14.4281 3.15998 16.1796C4.75912 17.9311 6.97196 18.9986 9.33815 19.1601C11.6283 19.3164 13.8914 18.6124 15.6866 17.1908L21.6726 23.1768L21.8494 23.3536L22.0262 23.1768L23.1768 22.0262ZM2.90657 9.98004C2.90661 8.58106 3.32147 7.21351 4.0987 6.05031C4.87596 4.88705 5.98071 3.98041 7.27324 3.44502C8.56578 2.90964 9.98805 2.76955 11.3602 3.04249C12.7324 3.31543 13.9928 3.98913 14.982 4.97839C15.9713 5.96766 16.645 7.22806 16.9179 8.60021C17.1909 9.97236 17.0508 11.3946 16.5154 12.6872C15.98 13.9797 15.0734 15.0845 13.9101 15.8617C12.7469 16.6389 11.3794 17.0538 9.98048 17.0538C8.105 17.0518 6.30694 16.3058 4.98077 14.9796C3.65463 13.6535 2.90868 11.8555 2.90657 9.98004Z" fill="#747575" stroke="#747575" stroke-width="0.5"/>
</svg>
