<svg width="24" height="24" viewBox="0 0 24 24" fill="none" xmlns="http://www.w3.org/2000/svg">
<path d="M12.5717 13.714C13.4193 13.714 14.2479 13.4627 14.9527 12.9917C15.6575 12.5208 16.2068 11.8515 16.5312 11.0684C16.8556 10.2853 16.9404 9.42354 16.7751 8.59219C16.6097 7.76085 16.2015 6.99721 15.6022 6.39784C15.0028 5.79847 14.2392 5.39029 13.4078 5.22493C12.5765 5.05956 11.7147 5.14444 10.9316 5.46881C10.1485 5.79319 9.47918 6.3425 9.00826 7.04728C8.53734 7.75206 8.28599 8.58066 8.28599 9.4283C8.28735 10.5645 8.73932 11.6538 9.54275 12.4573C10.3462 13.2607 11.4355 13.7126 12.5717 13.714ZM12.5717 6.85687C13.0803 6.85687 13.5774 7.00768 14.0003 7.29023C14.4232 7.57278 14.7528 7.97438 14.9474 8.44425C15.142 8.91412 15.1929 9.43115 15.0937 9.92996C14.9945 10.4288 14.7496 10.8869 14.39 11.2466C14.0304 11.6062 13.5722 11.8511 13.0734 11.9503C12.5746 12.0495 12.0575 11.9986 11.5877 11.804C11.1178 11.6094 10.7162 11.2798 10.4336 10.8569C10.1511 10.434 10.0003 9.93688 10.0003 9.4283C10.001 8.74652 10.2721 8.09286 10.7542 7.61077C11.2363 7.12868 11.8899 6.85755 12.5717 6.85687Z" fill="#747575"/>
<path d="M12.5714 24L19.8023 15.4723C19.9027 15.3442 20.0022 15.2154 20.1006 15.0857C21.3357 13.4587 22.003 11.4713 22 9.42857C22 6.92796 21.0066 4.52977 19.2384 2.76156C17.4702 0.993365 15.072 0 12.5714 0C10.0708 0 7.67261 0.993365 5.90441 2.76156C4.13621 4.52977 3.14285 6.92796 3.14285 9.42857C3.13985 11.4704 3.80682 13.4568 5.04142 15.0831L5.04227 15.0857C5.04227 15.0857 5.29942 15.4234 5.33799 15.4689L12.5714 24ZM18.7326 14.0529C18.7308 14.0529 18.532 14.3169 18.4866 14.3734L12.5714 21.3497L6.64856 14.364C6.61085 14.3169 6.41028 14.0511 6.40942 14.0503C5.40043 12.721 4.85515 11.0975 4.85713 9.42857C4.85713 7.38262 5.66989 5.42046 7.1166 3.97375C8.5633 2.52704 10.5255 1.71429 12.5714 1.71429C14.6174 1.71429 16.5795 2.52704 18.0262 3.97375C19.473 5.42046 20.2857 7.38262 20.2857 9.42857C20.2875 11.0985 19.7416 12.7229 18.7317 14.0529H18.7326Z" fill="#747575"/>
</svg>
