<svg width="37" height="36" viewBox="0 0 37 36" fill="none" xmlns="http://www.w3.org/2000/svg">
<path d="M34.3277 33.059H1.83104C1.52325 33.059 1.22088 32.978 0.954333 32.8241C0.687781 32.6702 0.466435 32.4488 0.312543 32.1823C0.158651 31.9157 0.0776348 31.6133 0.0776367 31.3055C0.0776387 30.9977 0.158659 30.6954 0.312554 30.4288L16.56 2.37362C16.7142 2.1079 16.9354 1.88734 17.2016 1.73402C17.4678 1.5807 17.7696 1.5 18.0768 1.5C18.3839 1.5 18.6857 1.5807 18.9519 1.73402C19.2181 1.88734 19.4394 2.1079 19.5935 2.37362L35.8427 30.4288C35.9965 30.6952 36.0776 30.9975 36.0776 31.3051C36.0777 31.6127 35.9969 31.915 35.8432 32.1815C35.6895 32.448 35.4684 32.6694 35.2021 32.8234C34.9358 32.9774 34.6336 33.0587 34.326 33.059H34.3277ZM18.0803 6.75724L4.87503 29.5521H31.289L18.0803 6.75724ZM19.8249 22.54H16.318V13.771H19.8249V22.54Z" fill="#FB9218"/>
<path d="M16.3271 24.2949H19.834V27.8018H16.3271V24.2949Z" fill="#FB9218"/>
</svg>
