<svg width="24" height="25" viewBox="0 0 24 25" fill="none" xmlns="http://www.w3.org/2000/svg">
    <path d="M19.65 3.905H4.35A1.35 1.35 0 0 0 3 5.255v15.3a1.35 1.35 0 0 0 1.35 1.35h15.3a1.35 1.35 0 0 0 1.35-1.35v-15.3a1.35 1.35 0 0 0-1.35-1.35z" stroke="#fff" stroke-width="2" stroke-linejoin="round"/>
    <path d="M6.6 10.68c1.496-1.8 3.296-2.7 5.4-2.7 2.103 0 3.903.9 5.4 2.7" stroke="#fff" stroke-width="2" stroke-linecap="round"/>
    <path d="M12 16.055a1.35 1.35 0 1 0 0-2.7 1.35 1.35 0 0 0 0 2.7z" fill="#fff"/>
    <path d="m9.75 11.555 2.254 3.15" stroke="#fff" stroke-width="2" stroke-linecap="round"/>
</svg>
